<svg version="1.1" id="Layer_1" xmlns="http://www.w3.org/2000/svg" xmlns:xlink="http://www.w3.org/1999/xlink" x="0px" y="0px"
	 width="100%" viewBox="0 0 1024 1024" enable-background="new 0 0 1024 1024" xml:space="preserve">
<path fill="#1A394E" opacity="1.000000" stroke="none" 
	d="
M582.000000,1025.000000 
	C388.000000,1025.000000 194.500000,1025.000000 1.000000,1025.000000 
	C1.000000,683.666687 1.000000,342.333344 1.000000,1.000000 
	C342.333344,1.000000 683.666687,1.000000 1025.000000,1.000000 
	C1025.000000,342.333344 1025.000000,683.666687 1025.000000,1025.000000 
	C877.500000,1025.000000 730.000000,1025.000000 582.000000,1025.000000 
M569.794006,843.844421 
	C569.794006,843.844421 569.673523,843.834717 570.408936,843.625977 
	C570.716370,842.290100 571.023743,840.954224 571.325012,839.467102 
	C571.325012,839.467102 571.412781,839.343750 572.160400,839.666687 
	C573.536316,840.411255 574.912292,841.155823 576.149597,841.887329 
	C576.149597,841.887329 576.193237,841.755188 576.102234,842.636719 
	C576.775635,845.473145 577.262817,848.370300 578.164612,851.132141 
	C579.633057,855.629333 581.642212,859.961670 582.927979,864.503723 
	C584.475586,869.970398 593.869507,873.864807 598.429749,870.524109 
	C599.240112,869.930359 599.635193,868.657898 600.027466,867.624939 
	C601.657166,863.333557 603.206421,859.011658 604.797546,854.705505 
	C605.513855,852.766907 606.400757,850.878418 606.952759,848.895508 
	C607.522827,846.847961 607.527588,844.625244 608.221741,842.633301 
	C610.331604,836.578491 612.820984,830.653748 614.856873,824.575928 
	C618.038574,815.077209 620.969604,805.494446 624.882446,795.953552 
	C626.926270,795.973083 628.970093,795.992676 631.202698,796.931030 
	C631.202698,821.043945 631.202698,845.156860 631.202698,869.479187 
	C648.565552,869.479187 665.259155,869.479187 681.957642,869.479187 
	C681.957642,864.346191 681.957642,859.551147 681.670837,854.042969 
	C680.135559,853.692871 678.603943,853.060669 677.064331,853.040283 
	C669.266357,852.936951 661.457947,852.770386 653.669678,853.063416 
	C647.518921,853.294922 648.563110,848.797607 648.005066,845.313660 
	C647.325256,841.069824 650.074158,840.906250 653.212280,840.970093 
	C658.851990,841.084839 664.500000,841.118713 670.135071,840.918213 
	C671.737000,840.861267 673.305969,839.876648 674.980042,838.477600 
	C674.980042,834.352905 674.980042,830.228271 674.980042,825.233215 
	C665.474548,825.233215 656.436768,825.233215 647.300415,825.233215 
	C647.300415,819.761963 647.300415,815.169861 647.300415,809.998413 
	C659.104553,809.998413 670.676941,809.998413 682.621582,809.998413 
	C682.621582,804.721191 682.621582,800.023804 682.621582,794.514038 
	C671.246704,794.514038 660.122559,794.514038 648.769775,793.782959 
	C648.860291,789.189758 648.842041,784.589294 649.145020,780.010132 
	C649.197510,779.216187 650.482178,778.238647 651.411682,777.807739 
	C664.058838,771.946472 676.958069,766.585327 689.353882,760.238953 
	C699.958130,754.809814 710.416504,748.878601 720.183105,742.082642 
	C733.928711,732.517944 747.630432,722.689148 760.147888,711.613708 
	C774.314331,699.079529 788.089966,685.841736 800.334717,671.461548 
	C816.811157,652.111816 831.707947,631.356201 842.009155,607.866882 
	C849.405457,591.001282 857.079224,574.138428 862.725037,556.659302 
	C867.801392,540.943298 871.053589,524.513306 873.684753,508.168762 
	C876.102173,493.152435 877.426208,477.847321 877.751221,462.637787 
	C878.094727,446.561005 877.450989,430.370270 875.843628,414.369446 
	C874.057922,396.593109 871.465393,378.812317 867.766968,361.341888 
	C865.028381,348.405090 860.153320,335.895844 855.887146,323.312378 
	C847.123962,297.464966 833.856384,273.793579 819.155396,251.014740 
	C801.032959,222.934387 778.834778,198.229889 753.680786,176.192795 
	C734.986572,159.814987 714.553894,145.828400 692.970825,133.705811 
	C666.329712,118.742249 637.866882,108.014595 608.295776,100.229637 
	C583.926331,93.814087 559.091431,90.801407 533.981995,90.123474 
	C523.198792,89.832336 512.325134,90.037506 501.600525,91.103722 
	C485.465881,92.707787 469.207764,94.244370 453.390076,97.624878 
	C416.745331,105.456497 382.244629,119.136604 349.747681,137.979782 
	C328.219238,150.462921 307.965485,164.675385 289.997925,181.790100 
	C271.960999,198.970856 254.119232,216.340256 239.908936,237.199905 
	C226.590668,256.750092 214.031555,276.603729 203.808212,297.959564 
	C183.110321,341.196014 172.965866,386.990662 171.250153,434.630219 
	C170.618073,452.180725 172.099228,469.825958 173.001053,487.408234 
	C174.034241,507.551300 178.731201,527.040894 183.785034,546.510803 
	C189.621277,568.994995 197.937912,590.475952 209.067154,610.744934 
	C217.202179,625.560669 225.798660,640.290833 235.792557,653.880188 
	C252.239075,676.243713 270.685883,696.955200 292.182556,714.811707 
	C309.447998,729.153442 327.258545,742.722290 347.046326,753.322693 
	C361.375519,760.998840 376.218964,767.751709 391.035156,774.470764 
	C403.160309,779.969604 403.292572,779.677917 402.035583,792.982117 
	C394.019562,793.041504 394.019562,793.041504 394.022461,800.952393 
	C394.017517,823.299988 394.012573,845.647522 394.037842,868.776001 
	C395.636475,869.844666 397.119995,871.507629 398.860352,871.844666 
	C401.564606,872.368408 404.464539,871.773254 407.243774,872.042297 
	C411.952454,872.498169 413.629089,870.406860 412.972595,865.030396 
	C412.973297,842.366211 412.974030,819.702026 413.444244,796.527954 
	C423.495361,793.628479 427.050995,796.151611 426.983765,806.410400 
	C426.854340,826.154846 426.509308,845.898743 426.544617,865.642334 
	C426.548553,867.833679 428.424500,871.880432 429.460541,871.889709 
	C433.958740,871.929688 438.467407,870.791931 443.399780,869.898499 
	C443.399780,869.898499 443.863586,869.936096 444.427704,869.959717 
	C444.615051,869.977844 444.802368,869.996033 445.096191,870.228760 
	C445.096191,870.228760 445.394196,870.240845 445.394196,870.240845 
	C445.394196,870.240845 445.014465,869.989380 445.336853,869.221191 
	C445.561310,864.602905 445.975098,859.983337 445.944611,855.366699 
	C445.923828,852.217041 446.863190,850.754028 450.206360,850.956299 
	C453.517700,851.156677 456.886475,851.309570 460.166321,850.931030 
	C466.057465,850.251038 472.477539,850.353027 477.593842,847.884277 
	C482.243958,845.640564 485.300507,840.242432 489.371063,836.581238 
	C491.157013,834.975037 493.716980,834.229309 495.925507,833.092834 
	C496.616455,834.880188 497.420715,836.633240 497.975128,838.461975 
	C499.200531,842.504028 498.774963,847.307007 503.253082,849.785156 
	C503.253082,849.785156 503.276093,849.683899 503.133728,850.525635 
	C503.243958,856.725708 510.101196,863.682373 516.743652,863.942993 
	C516.743652,863.942993 517.002869,864.282104 517.151978,864.949585 
	C518.513977,866.038147 519.716248,867.514893 521.264160,868.151367 
	C530.464172,871.934387 540.182312,873.561523 550.004883,872.760925 
	C553.777649,872.453369 557.471741,869.771240 560.939392,867.726257 
	C562.672485,866.704224 563.815491,864.681519 565.225464,863.111511 
	C565.416321,860.179199 566.461670,857.444946 567.174316,854.626587 
	C567.835632,852.010986 568.141663,849.305542 568.610107,846.791443 
	C568.610107,846.791443 568.469971,846.732910 569.171509,846.489746 
	C569.368042,845.569214 569.564514,844.648682 569.794006,843.844421 
M467.706116,947.939941 
	C467.870087,947.944214 468.034088,947.948547 468.198090,947.952820 
	C467.993347,947.805969 467.788605,947.659119 467.281097,947.026123 
	C467.468628,946.696106 467.656158,946.366028 468.428101,945.521118 
	C468.224365,943.330994 468.020630,941.140930 467.350128,938.374207 
	C459.547607,937.828186 451.745087,937.282166 443.301239,936.691284 
	C443.301239,925.973083 443.301239,915.593018 443.301239,905.210571 
	C439.698212,905.210571 436.777252,905.210571 434.016541,905.210571 
	C434.016541,919.410583 434.016541,933.330627 434.318115,947.962646 
	C444.711273,948.086487 455.104401,948.214844 465.497864,948.302979 
	C465.712921,948.304810 465.931915,947.841125 466.608276,947.296570 
	C466.910248,947.392212 467.212189,947.487854 467.706116,947.939941 
M238.498535,795.398315 
	C238.498535,800.156799 238.498535,804.915283 238.498535,810.164307 
	C247.379959,810.164307 255.802567,810.164307 264.702576,810.164307 
	C264.702576,830.265259 264.702576,849.860229 264.702576,870.114319 
	C270.296417,869.806274 275.381317,869.526306 281.174225,868.671204 
	C281.451599,866.915344 281.961517,865.160583 281.969574,863.403503 
	C282.034912,849.156128 282.064484,834.908020 281.972534,820.660950 
	C281.942719,816.040649 280.979004,811.065002 288.236755,811.514282 
	C288.457733,811.527893 288.729523,810.720581 289.890503,810.094971 
	C294.263458,810.094971 298.636444,810.094971 302.934601,810.094971 
	C302.934601,804.411011 302.934601,799.509460 302.620880,793.927856 
	C301.727112,793.622070 300.834106,793.051941 299.939514,793.049438 
	C280.857605,792.996155 261.775330,792.975281 242.693817,793.077759 
	C241.470230,793.084351 240.252304,794.141724 238.498535,795.398315 
M698.684448,868.658264 
	C703.954163,869.148743 709.223877,869.639282 715.080078,870.184387 
	C715.080078,861.975769 715.080078,854.911560 715.080078,847.748108 
	C717.595154,847.748108 719.634216,848.026367 721.568970,847.695496 
	C727.176208,846.736511 730.533569,849.138672 732.997070,854.050659 
	C735.223206,858.489441 738.039246,862.644226 740.767944,866.811096 
	C741.504333,867.935608 742.827148,869.361572 743.952271,869.427368 
	C748.854187,869.714233 753.782410,869.550598 759.675171,869.550598 
	C754.219116,860.954468 749.310120,853.220276 744.353882,845.411682 
	C746.536499,843.870789 748.030884,842.847961 749.491760,841.779175 
	C758.518311,835.174988 760.500000,825.903748 758.892639,815.600342 
	C757.373840,805.865051 751.727722,797.807739 742.199341,796.646667 
	C727.857361,794.899109 713.193848,795.790405 698.666809,795.575317 
	C698.544983,795.573486 698.420105,795.784058 697.649048,796.470032 
	C697.436218,797.254883 697.038757,798.039368 697.037537,798.824585 
	C697.003540,820.710144 696.990173,842.595886 697.061829,864.481262 
	C697.065735,865.676453 697.833435,866.869141 698.684448,868.658264 
M365.105194,798.285095 
	C349.538818,791.648560 333.325378,796.364929 317.327026,794.717834 
	C317.327026,820.106018 317.327026,844.642822 317.327026,869.474243 
	C322.588287,869.474243 327.486237,869.474243 332.966583,869.474243 
	C332.966583,862.014160 332.966583,854.798706 332.966583,847.363525 
	C335.536591,847.363525 337.566620,847.616638 339.510040,847.313843 
	C344.412506,846.549927 347.598572,848.356323 350.004120,852.724121 
	C352.644409,857.518188 355.849976,862.008362 358.937592,866.543579 
	C359.725494,867.700867 360.953125,869.309692 362.056122,869.373596 
	C367.234192,869.673401 372.439301,869.506958 377.993927,869.506958 
	C372.295471,860.994263 366.972870,853.043030 361.638336,845.073975 
	C381.263092,833.297241 383.026428,809.985107 365.105194,798.285095 
M794.405396,794.639038 
	C791.607788,795.673767 788.651611,796.410095 786.041260,797.797180 
	C776.814758,802.699890 772.243713,813.023865 774.961060,822.676025 
	C776.803772,829.221497 781.302673,833.702637 787.436829,836.090820 
	C794.238220,838.738647 801.430786,840.384094 808.222473,843.052856 
	C810.447266,843.927063 813.469482,846.708618 813.384766,848.487366 
	C813.287720,850.525879 810.428528,853.583923 808.256165,854.120361 
	C804.369385,855.079895 799.823242,855.421448 796.051453,854.317505 
	C790.262512,852.623230 784.895569,849.487061 778.944214,846.778259 
	C776.679932,849.285645 773.905518,852.357971 771.166687,855.390808 
	C780.181030,867.956665 796.557861,873.597961 811.746704,869.521667 
	C822.599792,866.608948 829.614258,858.733704 829.994202,849.034546 
	C830.408691,838.452942 825.269165,831.603333 813.525696,827.541809 
	C808.657776,825.858276 803.640686,824.601379 798.678406,823.196716 
	C794.664062,822.060425 790.533386,820.626160 791.153076,815.508545 
	C791.752869,810.554749 796.247803,809.882263 800.227173,809.235107 
	C801.658081,809.002380 803.312134,809.084167 804.659485,809.579590 
	C810.184204,811.611023 815.630005,813.857178 821.783630,816.293030 
	C824.073792,813.583496 827.033691,810.081665 830.142456,806.403809 
	C820.631592,795.518982 808.809021,792.441162 794.405396,794.639038 
M582.838501,914.542236 
	C587.161011,915.595520 591.483521,916.648804 596.413086,917.849976 
	C597.592834,916.559509 599.554810,914.413269 601.508728,912.275879 
	C591.447815,902.387695 577.615540,901.959229 568.967163,911.152954 
	C560.500122,920.154053 560.802490,933.709900 569.584290,942.085205 
	C578.155701,950.260010 594.703918,950.282410 601.626099,940.420227 
	C598.700378,935.994690 595.818604,934.024231 590.012878,937.151245 
	C583.566528,940.623230 575.651550,936.529358 573.271240,929.921753 
	C570.848389,923.196411 574.240601,917.268860 582.838501,914.542236 
M521.491272,947.142639 
	C525.899414,947.142639 530.307556,947.142639 534.683899,947.142639 
	C534.683899,943.584656 534.683899,940.805847 534.683899,937.465942 
	C526.588318,937.465942 518.685791,937.465942 510.107147,937.465942 
	C510.107147,926.386414 510.107147,915.856506 510.107147,905.248413 
	C506.483551,905.248413 503.561676,905.248413 500.388458,905.248413 
	C500.388458,919.214539 500.388458,932.919739 500.388458,947.124939 
	C507.283173,947.124939 513.889099,947.124939 521.491272,947.142639 
M443.489471,872.548340 
	C443.489471,872.548340 443.456970,872.481262 443.489471,872.548340 
z"/>
<path fill="#021924" opacity="1.000000" stroke="none" 
	d="
M631.013916,796.012207 
	C628.970093,795.992676 626.926270,795.973083 624.217346,795.726685 
	C622.937988,795.374573 622.323730,795.249390 621.262085,795.100464 
	C616.333252,795.076782 611.851868,795.076782 607.127258,795.076782 
	C602.319580,808.924805 597.547424,822.670349 592.351135,837.637695 
	C585.914917,822.616089 581.208374,808.159424 574.921814,794.416870 
	C574.381958,794.539124 573.842102,794.661316 573.302307,794.783569 
	C567.917053,808.342224 562.531799,821.900818 556.813049,836.299255 
	C552.603943,824.688171 548.829468,814.220459 545.013977,803.767639 
	C541.735901,794.787048 539.084961,792.992310 529.528076,794.002686 
	C526.444153,794.328735 523.268921,795.203674 520.464844,796.526123 
	C506.398285,803.159851 500.241364,815.041016 498.648926,829.679382 
	C498.118713,827.843506 497.831360,826.284973 497.285004,823.321655 
	C494.714020,825.049072 492.735260,826.392029 490.709778,827.660400 
	C490.660309,827.691406 490.091309,826.892822 489.748047,826.056458 
	C491.047424,807.160950 479.993256,795.027161 461.545746,794.902588 
	C450.429840,794.827515 439.312134,795.014709 427.763367,795.041992 
	C421.924561,794.985046 416.517639,794.970093 410.660217,794.930176 
	C407.811279,794.840820 405.412781,794.776489 403.026794,794.418457 
	C402.991150,793.735229 402.943024,793.345642 402.894867,792.956116 
	C403.292572,779.677917 403.160309,779.969604 391.035156,774.470764 
	C376.218964,767.751709 361.375519,760.998840 347.046326,753.322693 
	C327.258545,742.722290 309.447998,729.153442 292.182556,714.811707 
	C270.685883,696.955200 252.239075,676.243713 235.792557,653.880188 
	C225.798660,640.290833 217.202179,625.560669 209.067154,610.744934 
	C197.937912,590.475952 189.621277,568.994995 183.785034,546.510803 
	C178.731201,527.040894 174.034241,507.551300 173.001053,487.408234 
	C172.099228,469.825958 170.618073,452.180725 171.250153,434.630219 
	C172.965866,386.990662 183.110321,341.196014 203.808212,297.959564 
	C214.031555,276.603729 226.590668,256.750092 239.908936,237.199905 
	C254.119232,216.340256 271.960999,198.970856 289.997925,181.790100 
	C307.965485,164.675385 328.219238,150.462921 349.747681,137.979782 
	C382.244629,119.136604 416.745331,105.456497 453.390076,97.624878 
	C469.207764,94.244370 485.465881,92.707787 501.600525,91.103722 
	C512.325134,90.037506 523.198792,89.832336 533.981995,90.123474 
	C559.091431,90.801407 583.926331,93.814087 608.295776,100.229637 
	C637.866882,108.014595 666.329712,118.742249 692.970825,133.705811 
	C714.553894,145.828400 734.986572,159.814987 753.680786,176.192795 
	C778.834778,198.229889 801.032959,222.934387 819.155396,251.014740 
	C833.856384,273.793579 847.123962,297.464966 855.887146,323.312378 
	C860.153320,335.895844 865.028381,348.405090 867.766968,361.341888 
	C871.465393,378.812317 874.057922,396.593109 875.843628,414.369446 
	C877.450989,430.370270 878.094727,446.561005 877.751221,462.637787 
	C877.426208,477.847321 876.102173,493.152435 873.684753,508.168762 
	C871.053589,524.513306 867.801392,540.943298 862.725037,556.659302 
	C857.079224,574.138428 849.405457,591.001282 842.009155,607.866882 
	C831.707947,631.356201 816.811157,652.111816 800.334717,671.461548 
	C788.089966,685.841736 774.314331,699.079529 760.147888,711.613708 
	C747.630432,722.689148 733.928711,732.517944 720.183105,742.082642 
	C710.416504,748.878601 699.958130,754.809814 689.353882,760.238953 
	C676.958069,766.585327 664.058838,771.946472 651.411682,777.807739 
	C650.482178,778.238647 649.197510,779.216187 649.145020,780.010132 
	C648.842041,784.589294 648.860291,789.189758 648.426025,794.257446 
	C642.392822,795.158691 636.703369,795.585449 631.013916,796.012207 
M760.039062,248.454590 
	C731.499207,215.164062 697.862244,188.333130 658.631836,168.642731 
	C604.954163,141.701019 548.289490,130.876724 488.571838,138.409836 
	C419.963715,147.064468 361.224426,176.448273 311.775909,224.576874 
	C276.494507,258.916504 249.781769,298.954132 233.553284,345.536011 
	C214.950333,398.933441 210.984039,453.810883 221.787750,509.150909 
	C237.014191,587.145630 276.536102,650.650635 341.464996,696.892761 
	C410.614685,746.140808 487.955017,765.116150 572.047241,752.438232 
	C637.239319,742.609619 694.517456,714.817261 741.389282,668.272827 
	C817.810791,592.385132 844.671814,499.714172 828.179932,394.426453 
	C819.637939,339.892487 796.013855,291.443817 760.039062,248.454590 
z"/>
<path fill="#F8F7E5" opacity="1.000000" stroke="none" 
	d="
M498.891785,829.956665 
	C500.241364,815.041016 506.398285,803.159851 520.464844,796.526123 
	C523.268921,795.203674 526.444153,794.328735 529.528076,794.002686 
	C539.084961,792.992310 541.735901,794.787048 545.013977,803.767639 
	C548.829468,814.220459 552.603943,824.688171 556.813049,836.299255 
	C562.531799,821.900818 567.917053,808.342224 573.302307,794.783569 
	C573.842102,794.661316 574.381958,794.539124 574.921814,794.416870 
	C581.208374,808.159424 585.914917,822.616089 592.351135,837.637695 
	C597.547424,822.670349 602.319580,808.924805 607.127258,795.076782 
	C611.851868,795.076782 616.333252,795.076782 621.221191,795.463501 
	C613.947205,819.039856 606.248230,842.223450 598.612061,865.427612 
	C597.768738,867.990234 596.957458,869.980103 593.545044,869.551514 
	C590.227905,869.134949 586.812012,870.273010 585.246338,865.448120 
	C582.640259,857.416931 579.252075,849.639465 576.193237,841.755188 
	C576.193237,841.755188 576.149597,841.887329 576.179321,841.514465 
	C575.448364,839.034058 574.687622,836.926514 573.582764,833.865540 
	C572.601685,836.342224 572.007202,837.842957 571.412781,839.343750 
	C571.412781,839.343750 571.325012,839.467102 571.136719,839.804443 
	C570.523499,841.372681 570.098450,842.603699 569.673462,843.834717 
	C569.673523,843.834717 569.794006,843.844421 569.538330,844.019409 
	C569.011719,845.040588 568.740845,845.886719 568.469971,846.732910 
	C568.469971,846.732910 568.610107,846.791443 568.372192,846.980347 
	C565.606750,853.106323 563.291626,859.149109 560.423462,864.916870 
	C559.549927,866.673645 557.345276,868.386292 555.422974,868.904236 
	C542.053101,872.506165 529.173035,871.111755 517.002869,864.282104 
	C517.002869,864.282104 516.743652,863.942993 516.342163,863.631958 
	C511.719177,858.775208 507.497620,854.229553 503.276093,849.683899 
	C503.276093,849.683899 503.253082,849.785156 503.222778,849.403687 
	C501.758911,842.667053 500.325348,836.311829 498.891785,829.956665 
M529.080017,851.681091 
	C534.468750,854.471802 540.083130,854.817871 546.739441,853.293579 
	C541.650391,838.830994 536.676453,824.695496 531.399536,809.699036 
	C528.142639,811.648682 525.596008,812.807007 523.479797,814.502563 
	C513.772888,822.279907 511.070465,841.133240 529.080017,851.681091 
z"/>
<path fill="#F8F7E6" opacity="1.000000" stroke="none" 
	d="
M698.296631,795.895508 
	C698.420105,795.784058 698.544983,795.573486 698.666809,795.575317 
	C713.193848,795.790405 727.857361,794.899109 742.199341,796.646667 
	C751.727722,797.807739 757.373840,805.865051 758.892639,815.600342 
	C760.500000,825.903748 758.518311,835.174988 749.491760,841.779175 
	C748.030884,842.847961 746.536499,843.870789 744.353882,845.411682 
	C749.310120,853.220276 754.219116,860.954468 759.675171,869.550598 
	C753.782410,869.550598 748.854187,869.714233 743.952271,869.427368 
	C742.827148,869.361572 741.504333,867.935608 740.767944,866.811096 
	C738.039246,862.644226 735.223206,858.489441 732.997070,854.050659 
	C730.533569,849.138672 727.176208,846.736511 721.568970,847.695496 
	C719.634216,848.026367 717.595154,847.748108 715.080078,847.748108 
	C715.080078,854.911560 715.080078,861.975769 715.080078,870.184387 
	C709.223877,869.639282 703.954163,869.148743 698.587769,867.901855 
	C698.426208,843.395508 698.361389,819.645508 698.296631,795.895508 
M740.128235,829.697876 
	C746.414612,821.637085 743.275696,811.607178 733.688904,810.401245 
	C727.698120,809.647644 721.535339,810.261108 715.413757,810.261108 
	C715.413757,817.927002 715.413757,825.111572 715.413757,832.885742 
	C723.726440,831.858032 731.984314,835.026001 740.128235,829.697876 
z"/>
<path fill="#F8F7E6" opacity="1.000000" stroke="none" 
	d="
M365.423340,798.476318 
	C383.026428,809.985107 381.263092,833.297241 361.638336,845.073975 
	C366.972870,853.043030 372.295471,860.994263 377.993927,869.506958 
	C372.439301,869.506958 367.234192,869.673401 362.056122,869.373596 
	C360.953125,869.309692 359.725494,867.700867 358.937592,866.543579 
	C355.849976,862.008362 352.644409,857.518188 350.004120,852.724121 
	C347.598572,848.356323 344.412506,846.549927 339.510040,847.313843 
	C337.566620,847.616638 335.536591,847.363525 332.966583,847.363525 
	C332.966583,854.798706 332.966583,862.014160 332.966583,869.474243 
	C327.486237,869.474243 322.588287,869.474243 317.327026,869.474243 
	C317.327026,844.642822 317.327026,820.106018 317.327026,794.717834 
	C333.325378,796.364929 349.538818,791.648560 365.423340,798.476318 
M354.180481,831.208984 
	C360.650024,827.560303 362.660614,823.784729 361.208130,818.011963 
	C359.940918,812.975586 356.323090,810.483154 349.304535,810.232361 
	C344.028778,810.043823 338.740845,810.195129 333.294067,810.195129 
	C333.294067,817.725464 333.294067,824.763916 333.294067,832.455627 
	C340.232727,832.129333 346.821411,831.819519 354.180481,831.208984 
z"/>
<path fill="#F9F7E6" opacity="1.000000" stroke="none" 
	d="
M428.195251,795.084045 
	C439.312134,795.014709 450.429840,794.827515 461.545746,794.902588 
	C479.993256,795.027161 491.047424,807.160950 489.514343,826.363708 
	C486.029602,841.514709 477.289368,848.761414 462.563293,849.096619 
	C456.623138,849.231873 450.677338,849.118958 443.863586,849.118958 
	C443.863586,856.393433 443.863586,863.164795 443.863586,869.936096 
	C443.863586,869.936096 443.399780,869.898499 442.732422,869.893433 
	C437.490204,869.888428 432.915375,869.888428 428.195251,869.888428 
	C428.195251,844.303223 428.195251,819.693665 428.195251,795.084045 
M447.756714,834.095642 
	C454.432526,833.315063 461.307343,833.261108 467.716156,831.505676 
	C472.201080,830.277283 474.499329,825.795227 474.032349,820.727600 
	C473.599335,816.028198 469.727417,811.044556 465.032990,810.649841 
	C458.177582,810.073547 451.237732,810.501770 444.139221,810.501770 
	C444.139221,817.816650 444.039490,824.617371 444.257782,831.407898 
	C444.287079,832.318787 445.921783,833.178101 447.756714,834.095642 
z"/>
<path fill="#F7F6E7" opacity="1.000000" stroke="none" 
	d="
M794.822510,794.517944 
	C808.809021,792.441162 820.631592,795.518982 830.142456,806.403809 
	C827.033691,810.081665 824.073792,813.583496 821.783630,816.293030 
	C815.630005,813.857178 810.184204,811.611023 804.659485,809.579590 
	C803.312134,809.084167 801.658081,809.002380 800.227173,809.235107 
	C796.247803,809.882263 791.752869,810.554749 791.153076,815.508545 
	C790.533386,820.626160 794.664062,822.060425 798.678406,823.196716 
	C803.640686,824.601379 808.657776,825.858276 813.525696,827.541809 
	C825.269165,831.603333 830.408691,838.452942 829.994202,849.034546 
	C829.614258,858.733704 822.599792,866.608948 811.746704,869.521667 
	C796.557861,873.597961 780.181030,867.956665 771.166687,855.390808 
	C773.905518,852.357971 776.679932,849.285645 778.944214,846.778259 
	C784.895569,849.487061 790.262512,852.623230 796.051453,854.317505 
	C799.823242,855.421448 804.369385,855.079895 808.256165,854.120361 
	C810.428528,853.583923 813.287720,850.525879 813.384766,848.487366 
	C813.469482,846.708618 810.447266,843.927063 808.222473,843.052856 
	C801.430786,840.384094 794.238220,838.738647 787.436829,836.090820 
	C781.302673,833.702637 776.803772,829.221497 774.961060,822.676025 
	C772.243713,813.023865 776.814758,802.699890 786.041260,797.797180 
	C788.651611,796.410095 791.607788,795.673767 794.822510,794.517944 
z"/>
<path fill="#F7F6E6" opacity="1.000000" stroke="none" 
	d="
M631.108276,796.471619 
	C636.703369,795.585449 642.392822,795.158691 648.540344,794.622986 
	C660.122559,794.514038 671.246704,794.514038 682.621582,794.514038 
	C682.621582,800.023804 682.621582,804.721191 682.621582,809.998413 
	C670.676941,809.998413 659.104553,809.998413 647.300415,809.998413 
	C647.300415,815.169861 647.300415,819.761963 647.300415,825.233215 
	C656.436768,825.233215 665.474548,825.233215 674.980042,825.233215 
	C674.980042,830.228271 674.980042,834.352905 674.475037,838.950928 
	C665.072449,839.424316 656.174805,839.424316 647.295044,839.424316 
	C647.295044,844.959290 647.295044,849.685303 647.295044,854.756042 
	C659.060364,854.756042 670.509033,854.756042 681.957642,854.756042 
	C681.957642,859.551147 681.957642,864.346191 681.957642,869.479187 
	C665.259155,869.479187 648.565552,869.479187 631.202698,869.479187 
	C631.202698,845.156860 631.202698,821.043945 631.108276,796.471619 
z"/>
<path fill="#F7F6E3" opacity="1.000000" stroke="none" 
	d="
M280.466217,869.246277 
	C275.381317,869.526306 270.296417,869.806274 264.702576,870.114319 
	C264.702576,849.860229 264.702576,830.265259 264.702576,810.164307 
	C255.802567,810.164307 247.379959,810.164307 238.498535,810.164307 
	C238.498535,804.915283 238.498535,800.156799 239.227402,795.119446 
	C260.949036,794.763000 281.941833,794.685425 302.934601,794.607849 
	C302.934601,799.509460 302.934601,804.411011 302.934601,810.094971 
	C298.636444,810.094971 294.263458,810.094971 288.995056,810.119019 
	C285.635925,810.143127 283.172272,810.143127 280.466217,810.143127 
	C280.466217,830.105225 280.466217,849.675720 280.466217,869.246277 
z"/>
<path fill="#F3F3E6" opacity="1.000000" stroke="none" 
	d="
M582.413574,914.615479 
	C574.240601,917.268860 570.848389,923.196411 573.271240,929.921753 
	C575.651550,936.529358 583.566528,940.623230 590.012878,937.151245 
	C595.818604,934.024231 598.700378,935.994690 601.625488,940.422485 
	C594.703918,950.282410 578.155701,950.260010 569.584290,942.085205 
	C560.802490,933.709900 560.500122,920.154053 568.967163,911.152954 
	C577.615540,901.959229 591.447815,902.387695 601.508728,912.275879 
	C599.554810,914.413269 597.592834,916.559509 596.413086,917.849976 
	C591.483521,916.648804 587.161011,915.595520 582.413574,914.615479 
z"/>
<path fill="#F5F3E4" opacity="1.000000" stroke="none" 
	d="
M434.016541,947.250671 
	C434.016541,933.330627 434.016541,919.410583 434.016541,905.210571 
	C436.777252,905.210571 439.698212,905.210571 443.301239,905.210571 
	C443.301239,915.593018 443.301239,925.973083 443.301239,936.691284 
	C451.745087,937.282166 459.547607,937.828186 467.467865,939.093994 
	C467.671631,941.887878 467.757660,943.961975 467.843719,946.036011 
	C467.656158,946.366028 467.468628,946.696106 467.433594,947.305176 
	C467.586090,947.584167 467.514160,947.583496 467.514160,947.583496 
	C467.212189,947.487854 466.910248,947.392212 465.910889,947.328369 
	C454.814514,947.323730 444.415527,947.287231 434.016541,947.250671 
z"/>
<path fill="#F6F6E6" opacity="1.000000" stroke="none" 
	d="
M520.993164,947.133789 
	C513.889099,947.124939 507.283173,947.124939 500.388458,947.124939 
	C500.388458,932.919739 500.388458,919.214539 500.388458,905.248413 
	C503.561676,905.248413 506.483551,905.248413 510.107147,905.248413 
	C510.107147,915.856506 510.107147,926.386414 510.107147,937.465942 
	C518.685791,937.465942 526.588318,937.465942 534.683899,937.465942 
	C534.683899,940.805847 534.683899,943.584656 534.683899,947.142639 
	C530.307556,947.142639 525.899414,947.142639 520.993164,947.133789 
z"/>
<path fill="#153040" opacity="1.000000" stroke="none" 
	d="
M444.145630,869.947876 
	C443.863586,863.164795 443.863586,856.393433 443.863586,849.118958 
	C450.677338,849.118958 456.623138,849.231873 462.563293,849.096619 
	C477.289368,848.761414 486.029602,841.514709 489.530914,826.788391 
	C490.091309,826.892822 490.660309,827.691406 490.709778,827.660400 
	C492.735260,826.392029 494.714020,825.049072 497.285004,823.321655 
	C497.831360,826.284973 498.118713,827.843506 498.648926,829.679382 
	C500.325348,836.311829 501.758911,842.667053 503.271423,849.385498 
	C498.774963,847.307007 499.200531,842.504028 497.975128,838.461975 
	C497.420715,836.633240 496.616455,834.880188 495.925476,833.092834 
	C493.716980,834.229309 491.157013,834.975037 489.371063,836.581238 
	C485.300507,840.242432 482.243958,845.640564 477.593842,847.884277 
	C472.477539,850.353027 466.057465,850.251038 460.166321,850.931030 
	C456.886475,851.309570 453.517700,851.156677 450.206360,850.956299 
	C446.863190,850.754028 445.923828,852.217041 445.944611,855.366699 
	C445.975098,859.983337 445.561310,864.602905 445.168579,869.610596 
	C445.000275,870.000000 444.989716,870.014160 444.989716,870.014160 
	C444.802368,869.996033 444.615051,869.977844 444.145630,869.947876 
z"/>
<path fill="#153040" opacity="1.000000" stroke="none" 
	d="
M576.147705,842.195923 
	C579.252075,849.639465 582.640259,857.416931 585.246338,865.448120 
	C586.812012,870.273010 590.227905,869.134949 593.545044,869.551514 
	C596.957458,869.980103 597.768738,867.990234 598.612061,865.427612 
	C606.248230,842.223450 613.947205,819.039856 621.668640,795.487244 
	C622.323730,795.249390 622.937988,795.374573 623.779541,795.723511 
	C620.969604,805.494446 618.038574,815.077209 614.856873,824.575928 
	C612.820984,830.653748 610.331604,836.578491 608.221741,842.633301 
	C607.527588,844.625244 607.522827,846.847961 606.952759,848.895508 
	C606.400757,850.878418 605.513855,852.766907 604.797546,854.705505 
	C603.206421,859.011658 601.657166,863.333557 600.027466,867.624939 
	C599.635193,868.657898 599.240112,869.930359 598.429749,870.524109 
	C593.869507,873.864807 584.475586,869.970398 582.927979,864.503723 
	C581.642212,859.961670 579.633057,855.629333 578.164612,851.132141 
	C577.262817,848.370300 576.775635,845.473145 576.147705,842.195923 
z"/>
<path fill="#153040" opacity="1.000000" stroke="none" 
	d="
M427.763367,795.041992 
	C428.195251,819.693665 428.195251,844.303223 428.195251,869.888428 
	C432.915375,869.888428 437.490204,869.888428 442.518677,869.985352 
	C438.467407,870.791931 433.958740,871.929688 429.460541,871.889709 
	C428.424500,871.880432 426.548553,867.833679 426.544617,865.642334 
	C426.509308,845.898743 426.854340,826.154846 426.983765,806.410400 
	C427.050995,796.151611 423.495361,793.628479 412.968933,796.788330 
	C412.173218,797.139709 411.855438,797.131287 411.435699,796.747070 
	C411.230286,796.301392 411.129456,796.132080 411.116089,795.716370 
	C411.172607,795.298401 411.141663,795.126831 411.110687,794.955200 
	C416.517639,794.970093 421.924561,794.985046 427.763367,795.041992 
z"/>
<path fill="#153040" opacity="1.000000" stroke="none" 
	d="
M517.077393,864.615845 
	C529.173035,871.111755 542.053101,872.506165 555.422974,868.904236 
	C557.345276,868.386292 559.549927,866.673645 560.423462,864.916870 
	C563.291626,859.149109 565.606750,853.106323 568.369202,846.904419 
	C568.141663,849.305542 567.835632,852.010986 567.174316,854.626587 
	C566.461670,857.444946 565.416321,860.179199 565.225464,863.111511 
	C563.815491,864.681519 562.672485,866.704224 560.939392,867.726257 
	C557.471741,869.771240 553.777649,872.453369 550.004883,872.760925 
	C540.182312,873.561523 530.464172,871.934387 521.264160,868.151367 
	C519.716248,867.514893 518.513977,866.038147 517.077393,864.615845 
z"/>
<path fill="#021924" opacity="1.000000" stroke="none" 
	d="
M411.540283,797.023499 
	C411.855438,797.131287 412.173218,797.139709 412.734192,797.043335 
	C412.974030,819.702026 412.973297,842.366211 412.730896,865.495789 
	C412.164764,865.885864 411.842560,865.894531 411.433929,865.526733 
	C411.410278,842.385376 411.475281,819.704407 411.540283,797.023499 
z"/>
<path fill="#132A36" opacity="1.000000" stroke="none" 
	d="
M394.007660,867.995117 
	C394.012573,845.647522 394.017517,823.299988 394.267029,800.483643 
	C394.511627,800.014832 394.992462,800.026367 394.992462,800.026367 
	C394.992462,800.026367 395.473053,800.006714 395.540710,800.470215 
	C395.559540,823.287659 395.510712,845.641724 395.219513,867.985779 
	C394.654144,867.990173 394.330963,867.996582 394.007660,867.995117 
z"/>
<path fill="#132A36" opacity="1.000000" stroke="none" 
	d="
M302.777740,794.267822 
	C281.941833,794.685425 260.949036,794.763000 239.494003,794.775391 
	C240.252304,794.141724 241.470230,793.084351 242.693817,793.077759 
	C261.775330,792.975281 280.857605,792.996155 299.939514,793.049438 
	C300.834106,793.051941 301.727112,793.622070 302.777740,794.267822 
z"/>
<path fill="#132A36" opacity="1.000000" stroke="none" 
	d="
M681.814209,854.399536 
	C670.509033,854.756042 659.060364,854.756042 647.295044,854.756042 
	C647.295044,849.685303 647.295044,844.959290 647.295044,839.424316 
	C656.174805,839.424316 665.072449,839.424316 674.430054,839.370850 
	C673.305969,839.876648 671.737000,840.861267 670.135071,840.918213 
	C664.500000,841.118713 658.851990,841.084839 653.212280,840.970093 
	C650.074158,840.906250 647.325256,841.069824 648.005066,845.313660 
	C648.563110,848.797607 647.518921,853.294922 653.669678,853.063416 
	C661.457947,852.770386 669.266357,852.936951 677.064331,853.040283 
	C678.603943,853.060669 680.135559,853.692871 681.814209,854.399536 
z"/>
<path fill="#132A36" opacity="1.000000" stroke="none" 
	d="
M280.820221,868.958740 
	C280.466217,849.675720 280.466217,830.105225 280.466217,810.143127 
	C283.172272,810.143127 285.635925,810.143127 288.538605,810.219604 
	C288.729523,810.720581 288.457733,811.527893 288.236755,811.514282 
	C280.979004,811.065002 281.942719,816.040649 281.972534,820.660950 
	C282.064484,834.908020 282.034912,849.156128 281.969574,863.403503 
	C281.961517,865.160583 281.451599,866.915344 280.820221,868.958740 
z"/>
<path fill="#132A36" opacity="1.000000" stroke="none" 
	d="
M697.972839,796.182739 
	C698.361389,819.645508 698.426208,843.395508 698.368286,867.604248 
	C697.833435,866.869141 697.065735,865.676453 697.061829,864.481262 
	C696.990173,842.595886 697.003540,820.710144 697.037537,798.824585 
	C697.038757,798.039368 697.436218,797.254883 697.972839,796.182739 
z"/>
<path fill="#153040" opacity="1.000000" stroke="none" 
	d="
M394.022766,868.385559 
	C394.330963,867.996582 394.654144,867.990173 395.377136,868.391113 
	C400.501526,869.010864 405.225983,869.215332 410.370605,869.338501 
	C411.034698,868.167175 411.278625,867.077148 411.522583,865.987183 
	C411.842560,865.894531 412.164764,865.885864 412.732361,865.962158 
	C413.629089,870.406860 411.952454,872.498169 407.243774,872.042297 
	C404.464539,871.773254 401.564606,872.368408 398.860352,871.844666 
	C397.119995,871.507629 395.636475,869.844666 394.022766,868.385559 
z"/>
<path fill="#132A36" opacity="1.000000" stroke="none" 
	d="
M434.167328,947.606689 
	C444.415527,947.287231 454.814514,947.323730 465.681274,947.477417 
	C465.931915,947.841125 465.712921,948.304810 465.497864,948.302979 
	C455.104401,948.214844 444.711273,948.086487 434.167328,947.606689 
z"/>
<path fill="#153040" opacity="1.000000" stroke="none" 
	d="
M503.204895,850.104736 
	C507.497620,854.229553 511.719177,858.775208 516.129761,863.611328 
	C510.101196,863.682373 503.243958,856.725708 503.204895,850.104736 
z"/>
<path fill="#153040" opacity="1.000000" stroke="none" 
	d="
M395.473083,800.006714 
	C395.473053,800.006714 394.992462,800.026367 394.992462,800.026367 
	C394.992462,800.026367 394.511627,800.014832 394.271790,800.016052 
	C394.019562,793.041504 394.019562,793.041504 402.465210,792.969116 
	C402.943024,793.345642 402.991150,793.735229 402.586609,794.527405 
	C400.059326,794.930054 397.984772,794.930054 395.918243,794.930054 
	C395.731018,797.065247 395.602051,798.536011 395.473083,800.006714 
z"/>
<path fill="#153040" opacity="1.000000" stroke="none" 
	d="
M571.786621,839.505249 
	C572.007202,837.842957 572.601685,836.342224 573.582764,833.865540 
	C574.687622,836.926514 575.448364,839.034058 576.248657,841.520996 
	C574.912292,841.155823 573.536316,840.411255 571.786621,839.505249 
z"/>
<path fill="#132A36" opacity="1.000000" stroke="none" 
	d="
M468.135925,945.778564 
	C467.757660,943.961975 467.671631,941.887878 467.701233,939.382324 
	C468.020630,941.140930 468.224365,943.330994 468.135925,945.778564 
z"/>
<path fill="#153040" opacity="1.000000" stroke="none" 
	d="
M570.041199,843.730347 
	C570.098450,842.603699 570.523499,841.372681 571.139771,839.880005 
	C571.023743,840.954224 570.716370,842.290100 570.041199,843.730347 
z"/>
<path fill="#153040" opacity="1.000000" stroke="none" 
	d="
M568.820740,846.611328 
	C568.740845,845.886719 569.011719,845.040588 569.521851,843.961304 
	C569.564514,844.648682 569.368042,845.569214 568.820740,846.611328 
z"/>
<path fill="#153040" opacity="1.000000" stroke="none" 
	d="
M445.007385,869.994690 
	C445.014465,869.989380 445.394196,870.240845 445.394196,870.240845 
	C445.394196,870.240845 445.096191,870.228760 445.042969,870.121460 
	C444.989716,870.014160 445.000275,870.000000 445.007385,869.994690 
z"/>
<path fill="#153040" opacity="1.000000" stroke="none" 
	d="
M443.473206,872.514771 
	C443.456970,872.481262 443.489471,872.548340 443.473206,872.514771 
z"/>
<path fill="#132A36" opacity="1.000000" stroke="none" 
	d="
M467.584991,947.548218 
	C467.788605,947.659119 467.993347,947.805969 468.198059,947.952820 
	C468.034088,947.948547 467.870087,947.944214 467.610138,947.761719 
	C467.514160,947.583496 467.586090,947.584167 467.584991,947.548218 
z"/>
<path fill="#FAF7E6" opacity="1.000000" stroke="none" 
	d="
M760.271851,248.721405 
	C796.013855,291.443817 819.637939,339.892487 828.179932,394.426453 
	C844.671814,499.714172 817.810791,592.385132 741.389282,668.272827 
	C694.517456,714.817261 637.239319,742.609619 572.047241,752.438232 
	C487.955017,765.116150 410.614685,746.140808 341.464996,696.892761 
	C276.536102,650.650635 237.014191,587.145630 221.787750,509.150909 
	C210.984039,453.810883 214.950333,398.933441 233.553284,345.536011 
	C249.781769,298.954132 276.494507,258.916504 311.775909,224.576874 
	C361.224426,176.448273 419.963715,147.064468 488.571838,138.409836 
	C548.289490,130.876724 604.954163,141.701019 658.631836,168.642731 
	C697.862244,188.333130 731.499207,215.164062 760.271851,248.721405 
M589.943848,725.585876 
	C598.558777,723.038757 607.252197,720.728943 615.776001,717.906860 
	C681.482666,696.152527 732.228455,655.181519 769.125549,597.035217 
	C791.567078,561.669495 803.258911,522.395386 807.578430,480.954712 
	C812.972839,429.202698 805.968872,379.081146 784.378418,331.625824 
	C756.390930,270.109924 711.935120,223.510696 652.348022,191.826416 
	C592.993408,160.265747 530.019836,151.579575 464.383331,166.213150 
	C401.560730,180.219360 350.101776,213.654114 308.499634,262.154327 
	C269.708862,307.376984 247.055130,359.790375 241.745789,419.448181 
	C237.096207,471.692719 243.289581,522.147339 265.845367,569.998169 
	C293.014008,627.634949 335.255280,671.073059 391.639191,700.129578 
	C454.150879,732.343872 520.175720,741.255188 589.943848,725.585876 
z"/>
<path fill="#FBF8E6" opacity="1.000000" stroke="none" 
	d="
M395.540741,800.470215 
	C395.602051,798.536011 395.731018,797.065247 395.918243,794.930054 
	C397.984772,794.930054 400.059326,794.930054 402.574097,794.821167 
	C405.412781,794.776489 407.811279,794.840820 410.660217,794.930176 
	C411.141663,795.126831 411.172607,795.298401 410.774841,795.808228 
	C410.229828,798.311951 410.016296,800.477234 410.012390,802.642883 
	C409.972260,824.901855 409.966064,847.160767 409.950439,869.419800 
	C405.225983,869.215332 400.501526,869.010864 395.619446,868.401062 
	C395.510712,845.641724 395.559540,823.287659 395.540741,800.470215 
z"/>
<path fill="#1E3D53" opacity="1.000000" stroke="none" 
	d="
M528.760681,851.473816 
	C511.070465,841.133240 513.772888,822.279907 523.479797,814.502563 
	C525.596008,812.807007 528.142639,811.648682 531.399536,809.699036 
	C536.676453,824.695496 541.650391,838.830994 546.739441,853.293579 
	C540.083130,854.817871 534.468750,854.471802 528.760681,851.473816 
z"/>
<path fill="#214055" opacity="1.000000" stroke="none" 
	d="
M739.827393,829.933960 
	C731.984314,835.026001 723.726440,831.858032 715.413757,832.885742 
	C715.413757,825.111572 715.413757,817.927002 715.413757,810.261108 
	C721.535339,810.261108 727.698120,809.647644 733.688904,810.401245 
	C743.275696,811.607178 746.414612,821.637085 739.827393,829.933960 
z"/>
<path fill="#213D51" opacity="1.000000" stroke="none" 
	d="
M353.795288,831.359375 
	C346.821411,831.819519 340.232727,832.129333 333.294067,832.455627 
	C333.294067,824.763916 333.294067,817.725464 333.294067,810.195129 
	C338.740845,810.195129 344.028778,810.043823 349.304535,810.232361 
	C356.323090,810.483154 359.940918,812.975586 361.208130,818.011963 
	C362.660614,823.784729 360.650024,827.560303 353.795288,831.359375 
z"/>
<path fill="#233D4F" opacity="1.000000" stroke="none" 
	d="
M447.284912,834.078491 
	C445.921783,833.178101 444.287079,832.318787 444.257782,831.407898 
	C444.039490,824.617371 444.139221,817.816650 444.139221,810.501770 
	C451.237732,810.501770 458.177582,810.073547 465.032990,810.649841 
	C469.727417,811.044556 473.599335,816.028198 474.032349,820.727600 
	C474.499329,825.795227 472.201080,830.277283 467.716156,831.505676 
	C461.307343,833.261108 454.432526,833.315063 447.284912,834.078491 
z"/>
<path fill="#FAFFFC" opacity="1.000000" stroke="none" 
	d="
M410.370605,869.338440 
	C409.966064,847.160767 409.972260,824.901855 410.012390,802.642883 
	C410.016296,800.477234 410.229828,798.311951 410.687347,796.054688 
	C411.129456,796.132080 411.230286,796.301392 411.435699,796.747070 
	C411.475281,819.704407 411.410278,842.385376 411.433929,865.526733 
	C411.278625,867.077148 411.034698,868.167175 410.370605,869.338440 
z"/>
<path fill="#031A25" opacity="1.000000" stroke="none" 
	d="
M589.533630,725.672363 
	C520.175720,741.255188 454.150879,732.343872 391.639191,700.129578 
	C335.255280,671.073059 293.014008,627.634949 265.845367,569.998169 
	C243.289581,522.147339 237.096207,471.692719 241.745789,419.448181 
	C247.055130,359.790375 269.708862,307.376984 308.499634,262.154327 
	C350.101776,213.654114 401.560730,180.219360 464.383331,166.213150 
	C530.019836,151.579575 592.993408,160.265747 652.348022,191.826416 
	C711.935120,223.510696 756.390930,270.109924 784.378418,331.625824 
	C805.968872,379.081146 812.972839,429.202698 807.578430,480.954712 
	C803.258911,522.395386 791.567078,561.669495 769.125549,597.035217 
	C732.228455,655.181519 681.482666,696.152527 615.776001,717.906860 
	C607.252197,720.728943 598.558777,723.038757 589.533630,725.672363 
M526.288635,227.751633 
	C535.213196,236.433777 544.137817,245.115936 553.344360,254.419540 
	C603.133179,303.709625 652.909973,353.011871 702.721863,402.278656 
	C711.800110,411.257538 721.021667,420.091614 730.314880,429.573212 
	C730.474731,429.937195 730.634583,430.301178 730.279419,431.229950 
	C710.993958,449.984375 691.708496,468.738800 672.571777,487.348602 
	C681.536987,496.210968 690.246277,504.820312 698.972839,513.446777 
	C717.793579,495.269928 737.076660,476.696960 756.298096,458.060425 
	C765.346863,449.286987 774.277222,440.391388 783.911255,431.300751 
	C783.649963,430.212006 783.749390,428.755585 783.071960,428.091064 
	C775.809937,420.966949 768.425171,413.967926 760.770447,406.340179 
	C748.047241,393.883575 735.299622,381.451843 722.605286,368.965912 
	C671.222961,318.427399 619.866394,267.862732 568.452942,217.355881 
	C566.264526,215.206024 563.605103,213.535568 561.158997,211.206757 
	C561.022766,210.886627 560.784668,210.763397 560.365540,210.098297 
	C558.608887,208.988998 556.852173,207.879715 555.173828,206.053925 
	C553.440247,204.049850 551.706665,202.045761 549.551147,199.527115 
	C541.599060,191.783142 533.646912,184.039154 525.604248,176.206955 
	C516.830688,184.648590 508.352051,192.806458 499.239777,201.169601 
	C496.271027,204.027939 493.301300,206.885254 490.333710,209.744751 
	C482.271851,217.512756 474.210876,225.281708 465.635864,233.239563 
	C465.444580,233.539398 465.253296,233.839233 464.438141,234.367874 
	C460.846130,237.999207 457.254120,241.630554 453.103271,245.529327 
	C452.731995,246.010117 452.360687,246.490921 451.368195,247.220688 
	C448.825562,249.769638 446.282928,252.318588 443.141327,255.138565 
	C397.380432,299.772186 351.609161,344.395203 305.871796,389.052887 
	C300.169250,394.620850 294.646271,400.372772 288.461731,406.366333 
	C280.905243,414.268951 273.348785,422.171600 265.670807,430.201324 
	C266.410431,430.524200 267.589691,431.039001 268.664551,432.223846 
	C269.726501,433.490845 270.687744,434.861145 271.865448,436.009491 
	C292.113373,455.753601 312.387482,475.470825 332.657166,495.192627 
	C338.928558,501.294525 345.203857,507.392395 351.018646,513.046082 
	C359.990326,504.327637 368.524231,496.034637 378.075897,486.752594 
	C375.772522,484.887390 373.426880,483.273743 371.417145,481.315399 
	C355.210602,465.523254 339.045593,449.688141 322.944885,433.788208 
	C321.625580,432.485382 320.875977,430.605652 320.357483,428.534668 
	C322.656464,426.125336 324.898651,423.658630 327.263458,421.315735 
	C346.435974,402.320648 365.604218,383.321228 384.825653,364.375732 
	C424.768921,325.005890 464.744080,285.668457 505.203400,246.031326 
	C506.251831,244.935928 507.300262,243.840530 508.942291,242.389175 
	C509.566620,241.717407 510.190918,241.045654 511.360840,240.082779 
	C516.214722,235.792618 521.068604,231.502472 526.288635,227.751633 
M422.970917,489.825623 
	C410.315186,502.219116 397.659454,514.612610 384.376526,527.239441 
	C376.057129,535.976562 367.737732,544.713684 359.174438,553.706970 
	C359.399078,554.004639 359.982910,555.009277 360.779785,555.799011 
	C370.786011,565.715149 380.822998,575.600159 391.159027,586.051880 
	C423.145386,617.347595 455.110413,648.665161 487.145081,679.911499 
	C491.146881,683.814758 495.516571,687.340942 499.980072,691.680664 
	C507.680725,700.133179 515.381409,708.585693 523.793518,717.819092 
	C533.593079,707.762573 541.789124,699.351624 550.614136,690.720154 
	C597.471741,645.010681 644.329346,599.301208 691.478516,553.307312 
	C685.665588,547.594482 680.820435,542.832703 675.680969,537.466858 
	C671.712280,533.712158 667.743591,529.957520 663.411377,525.657349 
	C661.997864,524.254395 660.580444,522.855347 659.171448,521.447876 
	C648.030762,510.318817 636.891724,499.188202 626.437927,487.878296 
	C634.819641,479.796265 643.258911,471.772797 651.568909,463.617645 
	C662.471680,452.918152 673.272522,442.114838 684.817688,431.087677 
	C688.320862,428.282806 684.136536,427.484436 683.253418,426.611267 
	C663.725220,407.301666 644.043152,388.147614 624.376221,368.978424 
	C622.994385,367.631561 621.503418,366.396606 619.912292,364.974762 
	C596.464294,387.911285 573.277832,410.592010 549.775085,433.779022 
	C549.858826,435.648376 549.942627,437.517731 549.096558,439.256134 
	C543.663086,439.256134 538.229553,439.256134 532.796082,439.256134 
	C532.794067,439.742859 532.792114,440.229584 532.790100,440.716309 
	C534.123352,442.160645 535.456543,443.604980 536.090515,445.273010 
	C535.751831,445.806274 535.235596,446.298706 535.102051,446.879150 
	C533.850281,452.317963 537.971741,455.444000 541.091614,458.248260 
	C543.988525,460.852081 545.121460,462.881165 544.227478,466.671112 
	C543.738159,468.745300 544.317383,471.267212 545.021790,473.385376 
	C546.368835,477.435760 545.157227,479.464844 540.739685,480.035889 
	C539.229065,480.231140 537.777954,480.886078 536.299622,481.330963 
	C535.981445,481.860321 535.663208,482.389648 535.345032,482.919006 
	C545.025757,482.739960 542.880005,488.990509 542.407288,493.702087 
	C537.958496,489.453705 533.509705,485.205322 528.749939,480.389496 
	C527.533691,479.578247 526.317444,478.767029 524.780579,477.399292 
	C523.848694,477.941772 522.759277,478.322449 522.009705,479.052216 
	C515.575562,485.316193 509.228943,491.670044 502.806519,497.946198 
	C487.954498,512.460022 473.074646,526.945435 457.440063,541.104126 
	C455.871124,539.271851 454.371063,537.373962 452.709808,535.629578 
	C451.540710,534.401917 450.152466,533.382935 448.862061,532.270752 
	C448.097565,534.232178 446.707794,536.208008 446.752716,538.150696 
	C446.793732,539.925049 448.388000,541.663452 449.388336,543.592407 
	C444.439819,543.863342 442.274689,541.995544 442.958588,537.209473 
	C443.213623,535.424377 443.251617,533.528687 442.948761,531.758728 
	C442.104095,526.822144 441.029175,521.924988 440.321350,516.408447 
	C465.416473,491.178284 490.511566,465.948120 516.535522,439.784119 
	C511.417480,439.471802 507.211609,439.215179 502.531647,438.454834 
	C501.325714,438.151764 500.119812,437.848724 498.864502,437.533264 
	C498.864502,436.206177 498.864502,434.966400 498.805939,433.073639 
	C498.095245,432.180328 497.473572,431.195190 496.660767,430.407257 
	C479.204559,413.484833 461.723053,396.588501 444.256012,379.677277 
	C439.262939,374.843109 434.299774,369.978027 428.409851,364.237244 
	C418.920441,374.101013 409.960724,383.695557 400.689941,392.979401 
	C389.041840,404.643890 377.147766,416.062988 365.336090,427.563568 
	C363.682526,429.173584 362.077209,430.615387 365.876038,431.945740 
	C369.243408,435.499420 372.500214,439.166260 376.000031,442.584320 
	C384.529968,450.915131 393.246429,459.055450 401.747162,467.415436 
	C409.054016,474.601257 416.166382,481.984833 422.970917,489.825623 
M524.853577,272.250427 
	C523.925964,272.692444 522.792847,272.925598 522.100525,273.606750 
	C500.257843,295.098053 478.455078,316.629883 456.659149,338.168671 
	C455.399872,339.413116 454.248566,340.766846 452.864044,342.268066 
	C476.336853,365.395081 499.455292,388.187042 522.638672,410.912750 
	C523.097168,411.362152 524.316956,411.035034 525.853455,410.982544 
	C533.375061,403.977814 541.004333,397.084473 548.395386,389.944611 
	C562.862793,375.968964 577.166443,361.823883 591.624573,347.838531 
	C593.501526,346.022888 595.891357,344.737427 598.624634,342.793121 
	C591.237854,335.855988 585.218079,330.423370 579.446106,324.739105 
	C564.522766,310.042389 549.761780,295.180634 534.805603,280.517639 
	C531.893677,277.662811 528.393127,275.408478 524.853577,272.250427 
M451.020264,684.804199 
	C451.302521,684.755249 451.584747,684.706360 451.867004,684.657410 
	C451.626617,684.391541 451.386230,684.125671 450.900909,683.234924 
	C448.964264,681.406006 446.975708,679.628723 445.098724,677.740540 
	C411.756592,644.199402 378.275330,610.794250 345.185944,577.005432 
	C334.733002,566.331543 324.986115,554.908569 315.542694,543.317932 
	C303.147400,528.104370 291.377808,512.381226 279.310669,496.899353 
	C278.802185,496.247009 278.006378,495.818573 277.042358,495.042725 
	C286.930298,579.404114 365.554291,663.045349 451.020264,684.804199 
M769.223938,515.738770 
	C770.909241,508.155853 772.594482,500.572937 774.279724,492.990021 
	C773.723694,492.759766 773.167603,492.529510 772.611572,492.299255 
	C760.008240,508.185089 747.743958,524.355286 734.718262,539.886902 
	C717.294495,560.662720 700.255249,581.901917 681.280029,601.201050 
	C655.968994,626.944153 628.945679,651.002930 602.692749,675.822083 
	C600.230957,678.149414 598.018372,680.740479 594.902161,684.044434 
	C655.961975,669.105713 740.368835,616.982422 769.223938,515.738770 
M331.277191,290.779602 
	C317.583801,310.122192 307.084839,331.030609 299.424835,354.514099 
	C352.152435,304.340271 404.020874,254.983978 455.554565,205.946243 
	C404.117004,218.286774 362.234192,245.821579 331.277191,290.779602 
M674.300171,245.178680 
	C651.098572,227.619247 625.575623,214.675522 597.631226,206.455276 
	C648.501648,255.839905 700.411377,304.051758 748.888916,356.096771 
	C735.039368,311.791229 710.185852,275.197510 674.300171,245.178680 
z"/>
<path fill="#A7BBC2" opacity="1.000000" stroke="none" 
	d="
M555.095459,206.770416 
	C556.852173,207.879715 558.608887,208.988998 560.113281,210.518188 
	C559.569336,211.335464 559.277588,211.732849 558.985840,212.130234 
	C559.712280,211.967407 560.438660,211.804581 561.165100,211.641754 
	C563.605103,213.535568 566.264526,215.206024 568.452942,217.355881 
	C619.866394,267.862732 671.222961,318.427399 722.605286,368.965912 
	C735.299622,381.451843 748.047241,393.883575 760.586182,406.728149 
	C754.773865,411.443939 749.225891,415.881653 743.491394,420.063690 
	C739.177246,423.209961 734.623901,426.028229 730.177063,428.992554 
	C721.021667,420.091614 711.800110,411.257538 702.721863,402.278656 
	C652.909973,353.011871 603.133179,303.709625 553.187012,253.721069 
	C552.864014,252.049133 552.854370,251.015259 552.505066,250.112946 
	C551.193542,246.725311 551.462402,242.100128 545.640198,242.297577 
	C544.488464,242.336624 542.832397,239.862167 542.151611,238.235931 
	C541.338074,236.292587 541.323059,234.014984 540.985352,232.019470 
	C544.725769,228.589432 548.966492,225.142990 552.611511,221.152435 
	C554.191406,219.422699 554.942017,216.637375 555.341248,214.211685 
	C555.736511,211.809799 555.214966,209.257034 555.095459,206.770416 
M569.488647,223.551224 
	C569.488647,223.551224 569.454407,223.481766 569.488647,223.551224 
z"/>
<path fill="#A7BCC2" opacity="1.000000" stroke="none" 
	d="
M451.989380,246.971741 
	C452.360687,246.490921 452.731995,246.010117 453.553802,245.707443 
	C457.375885,244.101746 460.783264,242.381805 464.108215,240.515015 
	C467.062744,238.856155 467.313538,236.649155 465.062012,234.139069 
	C465.253296,233.839233 465.444580,233.539398 466.168610,233.187958 
	C470.050354,234.686676 472.674072,233.307861 475.250519,231.200882 
	C479.579681,227.660553 493.861420,226.538910 498.467346,229.472168 
	C499.583984,230.183258 500.122467,231.770721 500.999268,232.898880 
	C501.842682,233.984100 502.619263,235.224075 503.709412,235.993301 
	C505.978546,237.594482 508.435486,238.929489 510.815247,240.373901 
	C510.190918,241.045654 509.566620,241.717407 508.472900,242.258057 
	C504.679810,241.773529 503.076630,242.773834 504.706116,246.317688 
	C464.744080,285.668457 424.768921,325.005890 384.825653,364.375732 
	C365.604218,383.321228 346.435974,402.320648 327.263458,421.315735 
	C324.898651,423.658630 322.656464,426.125336 319.868866,428.759827 
	C319.380249,428.984985 318.898041,428.992554 318.600861,428.850037 
	C308.549164,421.151489 298.794617,413.595459 289.040100,406.039429 
	C294.646271,400.372772 300.169250,394.620850 305.871796,389.052887 
	C351.609161,344.395203 397.380432,299.772186 443.750305,255.136444 
	C449.069611,254.839783 451.839783,251.876312 451.989380,246.971741 
z"/>
<path fill="#031923" opacity="1.000000" stroke="none" 
	d="
M440.045166,517.012268 
	C441.029175,521.924988 442.104095,526.822144 442.948761,531.758728 
	C443.251617,533.528687 443.213623,535.424377 442.958588,537.209473 
	C442.274689,541.995544 444.439819,543.863342 449.388336,543.592407 
	C448.388000,541.663452 446.793732,539.925049 446.752716,538.150696 
	C446.707794,536.208008 448.097565,534.232178 448.862061,532.270752 
	C450.152466,533.382935 451.540710,534.401917 452.709808,535.629578 
	C454.371063,537.373962 455.871124,539.271851 457.657288,541.604858 
	C455.930908,543.634338 453.987335,545.163086 451.484955,547.131409 
	C459.577728,555.064270 466.726196,562.016724 473.813965,569.030457 
	C489.442932,584.496094 505.014832,600.019531 520.712830,615.414551 
	C521.737854,616.419739 523.634033,616.536804 525.411255,617.024658 
	C526.180969,616.455383 526.664429,615.928406 527.418701,615.187622 
	C529.911133,613.000183 532.208374,611.104614 534.341064,609.039246 
	C543.267273,600.394775 552.144104,591.699280 561.341858,583.152710 
	C562.885071,583.112366 564.553345,583.397095 565.297180,582.698059 
	C570.462708,577.844299 575.447876,572.797913 580.466980,567.789307 
	C583.794800,564.468567 587.266113,561.263977 590.304443,557.693604 
	C591.643433,556.120117 592.066528,553.767395 593.092346,551.525269 
	C594.466797,550.189758 595.654480,549.097412 597.188110,547.941772 
	C597.914429,547.308167 598.294739,546.737854 598.675049,546.167542 
	C597.752686,545.790588 596.830322,545.413696 595.620605,544.885864 
	C593.533691,542.877991 591.734192,541.021118 589.946411,538.773499 
	C588.299011,535.912109 586.822510,533.289246 584.927246,531.015259 
	C583.166443,528.902588 580.387634,527.483093 579.092468,525.176941 
	C577.458557,522.267700 575.585815,522.164246 572.737061,522.871338 
	C571.988281,522.147217 571.502625,521.551819 571.071899,520.571838 
	C571.298279,513.902527 574.793274,512.113892 580.559631,512.895996 
	C581.787109,513.062500 583.681519,512.360046 584.409180,511.403839 
	C586.592224,508.535126 583.507996,497.500763 580.305359,495.786621 
	C576.262329,493.622711 575.388977,489.933960 578.301147,486.138672 
	C579.655396,487.379242 580.703308,488.508545 581.432739,489.823486 
	C580.737366,490.961914 580.360596,491.914734 579.527588,494.021271 
	C581.776184,492.995728 582.892334,492.486633 584.302124,492.115631 
	C586.073547,493.809143 587.551392,495.364594 589.022827,497.308777 
	C592.373474,502.277435 595.730408,506.857391 599.325439,511.762054 
	C599.128479,511.983337 598.602905,513.150879 597.838562,513.336853 
	C593.547913,514.380615 593.498413,517.684631 594.132751,520.790588 
	C594.859680,524.350159 594.346069,526.890015 591.012939,528.754517 
	C590.238831,529.187561 590.013489,530.601624 589.535645,531.564331 
	C590.539612,531.812256 591.611511,532.418091 592.535156,532.242859 
	C595.655334,531.651062 597.604675,532.208740 598.265259,535.813293 
	C598.570679,537.479492 599.922058,539.044617 601.051331,540.453369 
	C605.620605,546.153870 606.563416,555.058472 600.935608,558.907593 
	C594.355408,563.408203 592.051331,569.001038 591.095032,576.049316 
	C591.068481,576.244812 590.562134,576.375183 590.277954,576.533081 
	C583.501282,573.878418 580.624023,574.290466 576.509766,578.829590 
	C575.735229,579.684082 575.032349,581.262451 575.309448,582.210693 
	C575.547302,583.024475 577.205688,583.836914 578.284851,583.908142 
	C580.855713,584.077881 583.078003,584.399902 582.964111,587.650391 
	C582.834229,591.357544 585.115540,592.487427 588.210327,593.004822 
	C589.391357,593.202271 590.519592,593.715149 591.434143,594.008057 
	C590.481140,595.659363 589.794250,596.849548 589.059937,598.354492 
	C588.671143,599.111572 588.329712,599.553894 587.622192,600.011169 
	C584.615356,600.565002 584.577881,601.694580 586.356934,603.546997 
	C585.698303,604.211792 585.202087,604.602783 584.337830,604.994751 
	C581.577332,604.927429 579.348572,604.994080 581.023254,608.684814 
	C578.603821,611.156189 576.301025,613.307800 574.064087,615.525879 
	C558.052124,631.402161 542.053589,647.292053 525.690796,663.174683 
	C524.785095,662.819275 524.162903,662.546082 523.704773,662.103149 
	C496.190308,635.500732 468.716217,608.856567 441.173157,582.283813 
	C430.889038,572.361938 420.446930,562.603821 409.910156,552.497742 
	C409.193817,551.164673 408.644196,550.104980 408.388519,548.890808 
	C419.136688,538.161682 429.590912,527.586975 440.045166,517.012268 
M596.489807,550.550049 
	C596.489807,550.550049 596.456177,550.481873 596.489807,550.550049 
M587.510193,499.450226 
	C587.510193,499.450226 587.543396,499.518127 587.510193,499.450226 
z"/>
<path fill="#9CB4BC" opacity="1.000000" stroke="none" 
	d="
M587.988281,599.996216 
	C588.329712,599.553894 588.671143,599.111572 589.427551,598.347168 
	C592.012146,596.666931 594.487671,595.629639 596.302551,593.899353 
	C609.856934,580.976746 623.280579,567.916931 637.115356,555.058472 
	C642.668640,555.793701 647.843201,556.597412 653.040466,556.790894 
	C654.371765,556.840454 655.860779,555.060120 657.130310,553.952087 
	C663.320679,548.549133 666.696716,539.814697 675.975220,538.070923 
	C680.820435,542.832703 685.665588,547.594482 691.478516,553.307312 
	C644.329346,599.301208 597.471741,645.010681 550.289673,690.476685 
	C549.326416,689.104004 548.908936,687.745178 548.013855,686.881470 
	C540.385742,679.521484 532.670776,672.251404 525.095947,664.719849 
	C525.490295,664.049377 525.770508,663.613525 526.050781,663.177673 
	C542.053589,647.292053 558.052124,631.402161 574.064087,615.525879 
	C576.301025,613.307800 578.603821,611.156189 581.308594,608.551270 
	C582.729248,607.083740 583.717529,606.038696 584.705811,604.993774 
	C585.202087,604.602783 585.698303,604.211792 586.630432,603.384766 
	C587.373657,601.964478 587.680969,600.980347 587.988281,599.996216 
z"/>
<path fill="#A7BBC1" opacity="1.000000" stroke="none" 
	d="
M769.135986,516.136658 
	C740.368835,616.982422 655.961975,669.105713 594.902161,684.044434 
	C598.018372,680.740479 600.230957,678.149414 602.692749,675.822083 
	C628.945679,651.002930 655.968994,626.944153 681.280029,601.201050 
	C700.255249,581.901917 717.294495,560.662720 734.718262,539.886902 
	C747.743958,524.355286 760.008240,508.185089 772.611572,492.299255 
	C773.167603,492.529510 773.723694,492.759766 774.279724,492.990021 
	C772.594482,500.572937 770.909241,508.155853 769.135986,516.136658 
z"/>
<path fill="#A9BDC3" opacity="1.000000" stroke="none" 
	d="
M450.557373,684.453369 
	C365.554291,663.045349 286.930298,579.404114 277.042358,495.042725 
	C278.006378,495.818573 278.802185,496.247009 279.310669,496.899353 
	C291.377808,512.381226 303.147400,528.104370 315.542694,543.317932 
	C324.986115,554.908569 334.733002,566.331543 345.185944,577.005432 
	C378.275330,610.794250 411.756592,644.199402 445.098724,677.740540 
	C446.975708,679.628723 448.964264,681.406006 450.874512,683.693970 
	C450.848145,684.153076 450.557373,684.453369 450.557373,684.453369 
z"/>
<path fill="#7E9AA5" opacity="1.000000" stroke="none" 
	d="
M525.690735,663.174683 
	C525.770508,663.613525 525.490295,664.049377 524.867065,664.963867 
	C522.812134,667.246948 521.118896,669.069641 519.385254,670.852905 
	C512.835876,677.589478 506.273346,684.313293 499.715759,691.041870 
	C495.516571,687.340942 491.146881,683.814758 487.145081,679.911499 
	C455.110413,648.665161 423.145386,617.347595 391.092041,585.388794 
	C392.288788,584.546387 393.580170,584.117371 394.808960,584.253479 
	C396.221130,584.409912 398.112000,585.872864 398.869507,585.371094 
	C402.913116,582.692810 406.680145,579.593872 410.498627,576.584290 
	C410.815094,576.334900 410.928589,575.666687 410.922363,575.195801 
	C410.884491,572.338623 412.225800,571.211731 415.086487,570.793884 
	C416.386292,570.604065 418.602448,567.925293 418.404846,567.603882 
	C416.481018,564.474854 416.177124,559.661621 410.984802,559.532593 
	C410.680389,557.274780 410.378632,555.022949 410.076843,552.771057 
	C420.446930,562.603821 430.889038,572.361938 441.173157,582.283813 
	C468.716217,608.856567 496.190308,635.500732 523.704773,662.103149 
	C524.162903,662.546082 524.785095,662.819275 525.690735,663.174683 
z"/>
<path fill="#FAF7E6" opacity="1.000000" stroke="none" 
	d="
M525.124939,617.066956 
	C523.634033,616.536804 521.737854,616.419739 520.712830,615.414551 
	C505.014832,600.019531 489.442932,584.496094 473.813965,569.030457 
	C466.726196,562.016724 459.577728,555.064270 451.484955,547.131409 
	C453.987335,545.163086 455.930908,543.634338 458.040283,541.773926 
	C473.074646,526.945435 487.954498,512.460022 502.806519,497.946198 
	C509.228943,491.670044 515.575562,485.316193 522.009705,479.052216 
	C522.759277,478.322449 523.848694,477.941772 524.818726,478.135864 
	C524.818298,516.466125 524.755310,554.059875 524.759827,591.653564 
	C524.760864,600.124695 524.997009,608.595825 525.124939,617.066956 
z"/>
<path fill="#FAF7E6" opacity="1.000000" stroke="none" 
	d="
M525.181519,411.070221 
	C524.316956,411.035034 523.097168,411.362152 522.638672,410.912750 
	C499.455292,388.187042 476.336853,365.395081 452.864044,342.268066 
	C454.248566,340.766846 455.399872,339.413116 456.659149,338.168671 
	C478.455078,316.629883 500.257843,295.098053 522.100525,273.606750 
	C522.792847,272.925598 523.925964,272.692444 524.825134,273.013184 
	C524.788086,308.231140 524.745605,342.686401 524.789978,377.141571 
	C524.804565,388.451263 525.044556,399.760681 525.181519,411.070221 
z"/>
<path fill="#2C536C" opacity="1.000000" stroke="none" 
	d="
M525.517456,411.026367 
	C525.044556,399.760681 524.804565,388.451263 524.789978,377.141571 
	C524.745605,342.686401 524.788086,308.231140 524.980347,273.326538 
	C528.393127,275.408478 531.893677,277.662811 534.805603,280.517639 
	C549.761780,295.180634 564.522766,310.042389 579.446106,324.739105 
	C585.218079,330.423370 591.237854,335.855988 598.624634,342.793121 
	C595.891357,344.737427 593.501526,346.022888 591.624573,347.838531 
	C577.166443,361.823883 562.862793,375.968964 548.395386,389.944611 
	C541.004333,397.084473 533.375061,403.977814 525.517456,411.026367 
z"/>
<path fill="#2C546D" opacity="1.000000" stroke="none" 
	d="
M561.039062,583.022583 
	C552.144104,591.699280 543.267273,600.394775 534.341064,609.039246 
	C532.208374,611.104614 529.911133,613.000183 527.328064,614.733765 
	C526.642944,612.043396 526.042664,609.593628 526.037720,607.142700 
	C525.976440,576.715027 526.001709,546.287109 526.004822,515.859314 
	C526.005859,505.716705 526.010925,495.574127 526.005005,485.431519 
	C526.003723,483.230255 525.736511,480.874634 529.060913,480.956970 
	C533.509705,485.205322 537.958496,489.453705 542.854675,494.149658 
	C545.582886,496.716400 547.863770,498.835602 550.276489,501.254303 
	C557.277893,508.021332 564.147400,514.488831 571.016968,520.956360 
	C571.502625,521.551819 571.988281,522.147217 572.889221,523.166748 
	C578.847839,528.781982 584.391235,533.973083 589.934631,539.164185 
	C591.734192,541.021118 593.533691,542.877991 595.756409,545.173950 
	C596.400452,546.410339 596.621338,547.207703 596.842163,548.005066 
	C595.654480,549.097412 594.466797,550.189758 592.773132,551.647522 
	C581.857727,562.349426 571.448425,572.685974 561.039062,583.022583 
z"/>
<path fill="#FBF8E6" opacity="1.000000" stroke="none" 
	d="
M365.940063,431.247314 
	C362.077209,430.615387 363.682526,429.173584 365.336090,427.563568 
	C377.147766,416.062988 389.041840,404.643890 400.689941,392.979401 
	C409.960724,383.695557 418.920441,374.101013 428.409851,364.237244 
	C434.299774,369.978027 439.262939,374.843109 444.256012,379.677277 
	C461.723053,396.588501 479.204559,413.484833 496.660767,430.407257 
	C497.473572,431.195190 498.095245,432.180328 498.445435,433.380676 
	C489.657928,432.840973 481.239471,431.379608 472.802246,431.261566 
	C446.496460,430.893463 420.183563,431.005493 393.873444,430.992065 
	C384.562347,430.987305 375.251190,431.157166 365.940063,431.247314 
z"/>
<path fill="#FCF9E7" opacity="1.000000" stroke="none" 
	d="
M550.091370,433.272705 
	C573.277832,410.592010 596.464294,387.911285 619.912292,364.974762 
	C621.503418,366.396606 622.994385,367.631561 624.376221,368.978424 
	C644.043152,388.147614 663.725220,407.301666 683.253418,426.611267 
	C684.136536,427.484436 688.320862,428.282806 684.001953,431.114990 
	C651.753845,431.116180 620.319458,430.877869 588.889893,431.166199 
	C575.951721,431.284882 563.023926,432.536438 550.091370,433.272705 
z"/>
<path fill="#A7BCC2" opacity="1.000000" stroke="none" 
	d="
M331.499695,290.497345 
	C362.234192,245.821579 404.117004,218.286774 455.554565,205.946243 
	C404.020874,254.983978 352.152435,304.340271 299.424835,354.514099 
	C307.084839,331.030609 317.583801,310.122192 331.499695,290.497345 
z"/>
<path fill="#A3B9C0" opacity="1.000000" stroke="none" 
	d="
M589.029236,496.920044 
	C587.551392,495.364594 586.073547,493.809143 584.203247,491.854950 
	C583.124268,490.850098 582.437744,490.243988 581.751282,489.637878 
	C580.703308,488.508545 579.655396,487.379242 578.207031,485.856750 
	C576.872803,484.637329 575.939026,483.811066 574.888489,482.684662 
	C573.121887,480.802063 571.472107,479.219604 569.717651,477.377197 
	C569.058350,476.630310 568.503601,476.143341 567.783081,475.370178 
	C566.795532,474.370026 565.973816,473.656067 565.035034,472.629791 
	C563.315674,470.780457 561.713318,469.243469 559.978882,467.419861 
	C558.196106,465.584564 556.545410,464.035919 554.744629,462.209747 
	C553.799377,461.255981 553.004272,460.579742 552.087646,459.620209 
	C551.337158,458.827911 550.708252,458.318878 549.955322,457.530762 
	C549.347290,456.890350 548.863403,456.529022 548.253174,455.923340 
	C547.423340,455.116791 546.719849,454.554626 545.899780,453.738159 
	C545.093811,452.869415 544.404358,452.254944 543.520996,451.355774 
	C541.148071,449.063782 538.968933,447.056549 536.789795,445.049316 
	C535.456543,443.604980 534.123352,442.160645 532.790100,440.716309 
	C532.792114,440.229584 532.794067,439.742859 532.796082,439.256134 
	C538.229553,439.256134 543.663086,439.256134 549.835083,439.546631 
	C554.272034,440.794403 558.046570,441.526672 561.656250,442.746643 
	C580.477173,449.107605 596.269287,460.237915 610.442078,473.920654 
	C615.438232,478.744110 620.642761,483.351837 625.752136,488.058044 
	C636.891724,499.188202 648.030762,510.318817 659.171448,521.447876 
	C660.580444,522.855347 661.997864,524.254395 663.296387,526.251709 
	C655.746826,530.448914 650.650940,536.767334 645.094238,542.528748 
	C643.474182,544.208435 642.205078,546.226624 640.478882,547.950195 
	C638.762756,546.416077 637.334717,545.029602 635.924438,543.625366 
	C620.291138,528.058533 604.660522,512.488892 589.029236,496.920044 
z"/>
<path fill="#A0B6BD" opacity="1.000000" stroke="none" 
	d="
M440.183228,516.710327 
	C429.590912,527.586975 419.136688,538.161682 408.037415,548.832031 
	C404.832886,546.657043 402.159271,544.501099 399.737579,542.091919 
	C394.754974,537.135010 389.907074,532.042664 385.003723,527.006104 
	C397.659454,514.612610 410.315186,502.219116 423.471161,489.429382 
	C428.839630,484.278229 433.700287,479.515594 438.577576,474.769989 
	C451.988556,461.720978 466.219818,449.826965 484.373352,443.876038 
	C490.466675,441.878571 496.788422,440.577789 503.005737,438.958557 
	C507.211609,439.215179 511.417480,439.471802 516.535522,439.784119 
	C490.511566,465.948120 465.416473,491.178284 440.183228,516.710327 
z"/>
<path fill="#32586F" opacity="1.000000" stroke="none" 
	d="
M502.768677,438.706696 
	C496.788422,440.577789 490.466675,441.878571 484.373352,443.876038 
	C466.219818,449.826965 451.988556,461.720978 438.577576,474.769989 
	C433.700287,479.515594 428.839630,484.278229 423.668060,489.157043 
	C416.166382,481.984833 409.054016,474.601257 401.747162,467.415436 
	C393.246429,459.055450 384.529968,450.915131 376.000031,442.584320 
	C372.500214,439.166260 369.243408,435.499420 365.908051,431.596527 
	C375.251190,431.157166 384.562347,430.987305 393.873444,430.992065 
	C420.183563,431.005493 446.496460,430.893463 472.802246,431.261566 
	C481.239471,431.379608 489.657928,432.840973 498.474731,433.707184 
	C498.864502,434.966400 498.864502,436.206177 498.864502,437.533264 
	C500.119812,437.848724 501.325714,438.151764 502.768677,438.706696 
z"/>
<path fill="#325970" opacity="1.000000" stroke="none" 
	d="
M626.095032,487.968170 
	C620.642761,483.351837 615.438232,478.744110 610.442078,473.920654 
	C596.269287,460.237915 580.477173,449.107605 561.656250,442.746643 
	C558.046570,441.526672 554.272034,440.794403 550.299988,439.612122 
	C549.942627,437.517731 549.858826,435.648376 549.933228,433.525879 
	C563.023926,432.536438 575.951721,431.284882 588.889893,431.166199 
	C620.319458,430.877869 651.753845,431.116180 683.651733,431.249268 
	C673.272522,442.114838 662.471680,452.918152 651.568909,463.617645 
	C643.258911,471.772797 634.819641,479.796265 626.095032,487.968170 
z"/>
<path fill="#A8BDC3" opacity="1.000000" stroke="none" 
	d="
M674.572266,245.411072 
	C710.185852,275.197510 735.039368,311.791229 748.888916,356.096771 
	C700.411377,304.051758 648.501648,255.839905 597.631226,206.455276 
	C625.575623,214.675522 651.098572,227.619247 674.572266,245.411072 
z"/>
<path fill="#7A97A1" opacity="1.000000" stroke="none" 
	d="
M783.261169,431.551117 
	C774.277222,440.391388 765.346863,449.286987 756.298096,458.060425 
	C737.076660,476.696960 717.793579,495.269928 698.972839,513.446777 
	C690.246277,504.820312 681.536987,496.210968 672.571777,487.348602 
	C691.708496,468.738800 710.993958,449.984375 730.925781,431.110779 
	C736.711609,431.032288 741.851379,431.058380 746.990662,431.116516 
	C759.080933,431.253265 771.171021,431.405273 783.261169,431.551117 
z"/>
<path fill="#7895A0" opacity="1.000000" stroke="none" 
	d="
M318.898010,428.992554 
	C318.898041,428.992554 319.380249,428.984985 319.620972,428.989471 
	C320.875977,430.605652 321.625580,432.485382 322.944885,433.788208 
	C339.045593,449.688141 355.210602,465.523254 371.417145,481.315399 
	C373.426880,483.273743 375.772522,484.887390 378.075897,486.752594 
	C368.524231,496.034637 359.990326,504.327637 351.018646,513.046082 
	C345.203857,507.392395 338.928558,501.294525 332.657166,495.192627 
	C312.387482,475.470825 292.113373,455.753601 271.865448,436.009491 
	C270.687744,434.861145 269.726501,433.490845 269.174683,431.720520 
	C284.599701,431.210114 299.515259,431.265564 314.428314,431.099823 
	C315.925842,431.083221 317.408478,429.727020 318.898010,428.992554 
z"/>
<path fill="#829EA9" opacity="1.000000" stroke="none" 
	d="
M384.690125,527.122803 
	C389.907074,532.042664 394.754974,537.135010 399.737579,542.091919 
	C402.159271,544.501099 404.832886,546.657043 407.743530,548.986450 
	C408.644196,550.104980 409.193817,551.164673 409.910156,552.497742 
	C410.378632,555.022949 410.680389,557.274780 410.984802,559.532593 
	C416.177124,559.661621 416.481018,564.474854 418.404846,567.603882 
	C418.602448,567.925293 416.386292,570.604065 415.086487,570.793884 
	C412.225800,571.211731 410.884491,572.338623 410.922363,575.195801 
	C410.928589,575.666687 410.815094,576.334900 410.498627,576.584290 
	C406.680145,579.593872 402.913116,582.692810 398.869507,585.371094 
	C398.112000,585.872864 396.221130,584.409912 394.808960,584.253479 
	C393.580170,584.117371 392.288788,584.546387 390.938599,585.109436 
	C380.822998,575.600159 370.786011,565.715149 360.779785,555.799011 
	C359.982910,555.009277 359.399078,554.004639 359.174438,553.706970 
	C367.737732,544.713684 376.057129,535.976562 384.690125,527.122803 
z"/>
<path fill="#FAF8E8" opacity="1.000000" stroke="none" 
	d="
M499.847900,691.361267 
	C506.273346,684.313293 512.835876,677.589478 519.385254,670.852905 
	C521.118896,669.069641 522.812134,667.246948 524.752930,665.198425 
	C532.670776,672.251404 540.385742,679.521484 548.013855,686.881470 
	C548.908936,687.745178 549.326416,689.104004 549.975220,690.586975 
	C541.789124,699.351624 533.593079,707.762573 523.793518,717.819092 
	C515.381409,708.585693 507.680725,700.133179 499.847900,691.361267 
z"/>
<path fill="#FAF7E7" opacity="1.000000" stroke="none" 
	d="
M499.873413,200.964325 
	C508.352051,192.806458 516.830688,184.648590 525.604248,176.206955 
	C533.646912,184.039154 541.599060,191.783142 549.720825,200.128174 
	C541.918030,209.340195 533.945557,217.951157 525.639160,226.425583 
	C523.948242,225.113922 522.505920,224.023010 521.248230,222.749741 
	C514.098877,215.512039 506.993652,208.230759 499.873413,200.964325 
z"/>
<path fill="#A2B8BD" opacity="1.000000" stroke="none" 
	d="
M499.556580,201.066956 
	C506.993652,208.230759 514.098877,215.512039 521.248230,222.749741 
	C522.505920,224.023010 523.948242,225.113922 525.628235,226.587509 
	C525.951172,226.885971 525.922485,227.212311 525.922485,227.212311 
	C521.068604,231.502472 516.214722,235.792618 511.088043,240.228333 
	C508.435486,238.929489 505.978546,237.594482 503.709412,235.993301 
	C502.619263,235.224075 501.842682,233.984100 500.999268,232.898880 
	C500.122467,231.770721 499.583984,230.183258 498.467346,229.472168 
	C493.861420,226.538910 479.579681,227.660553 475.250519,231.200882 
	C472.674072,233.307861 470.050354,234.686676 466.425476,233.093323 
	C474.210876,225.281708 482.271851,217.512756 490.333710,209.744751 
	C493.301300,206.885254 496.271027,204.027939 499.556580,201.066956 
z"/>
<path fill="#031923" opacity="1.000000" stroke="none" 
	d="
M569.822327,477.637146 
	C571.472107,479.219604 573.121887,480.802063 574.870361,483.054291 
	C573.793396,484.255951 571.682373,485.390869 571.579407,485.231110 
	C569.220947,481.573273 565.750488,480.604675 561.705383,480.526215 
	C560.965393,480.511871 559.872253,479.634918 559.576721,478.900726 
	C557.737732,474.332275 554.609741,476.039093 552.470703,476.459686 
	C553.028809,480.641510 554.360779,484.394501 553.786560,487.828766 
	C552.993958,492.568756 554.074524,495.094604 558.498047,497.036865 
	C559.810974,497.613342 559.985107,500.783356 560.681030,502.764954 
	C558.625183,502.758972 556.535706,502.976227 554.524414,502.673889 
	C553.012512,502.446625 551.600891,501.552216 550.144592,500.954803 
	C547.863770,498.835602 545.582886,496.716400 543.149475,494.304077 
	C542.880005,488.990509 545.025757,482.739960 535.345032,482.919006 
	C535.663208,482.389648 535.981445,481.860321 536.299622,481.330963 
	C537.777954,480.886078 539.229065,480.231140 540.739685,480.035889 
	C545.157227,479.464844 546.368835,477.435760 545.021790,473.385376 
	C544.317383,471.267212 543.738159,468.745300 544.227478,466.671112 
	C545.121460,462.881165 543.988525,460.852081 541.091614,458.248260 
	C537.971741,455.444000 533.850281,452.317963 535.102051,446.879150 
	C535.235596,446.298706 535.751831,445.806274 536.440186,445.161163 
	C538.968933,447.056549 541.148071,449.063782 543.198975,451.554626 
	C542.810974,453.146667 542.551208,454.255096 542.062378,456.341187 
	C544.137878,455.108276 545.077087,454.550385 546.016296,453.992462 
	C546.719849,454.554626 547.423340,455.116791 548.182007,456.265198 
	C548.851318,457.170868 549.465332,457.490356 550.079407,457.809845 
	C550.708252,458.318878 551.337158,458.827911 551.831177,459.847473 
	C552.762512,461.067719 553.828674,461.777496 554.894775,462.487244 
	C556.545410,464.035919 558.196106,465.584564 559.958740,467.813354 
	C560.199707,471.763672 562.054565,473.062531 565.152039,472.942108 
	C565.973816,473.656067 566.795532,474.370026 567.401428,475.460571 
	C566.750000,476.233368 566.314392,476.629517 565.878845,477.025696 
	C567.193359,477.229492 568.507812,477.433319 569.822327,477.637146 
z"/>
<path fill="#F8F7E5" opacity="1.000000" stroke="none" 
	d="
M318.600830,428.850037 
	C317.408478,429.727020 315.925842,431.083221 314.428314,431.099823 
	C299.515259,431.265564 284.599701,431.210114 269.226929,431.385498 
	C267.589691,431.039001 266.410431,430.524200 265.670807,430.201324 
	C273.348785,422.171600 280.905243,414.268951 288.750916,406.202881 
	C298.794617,413.595459 308.549164,421.151489 318.600830,428.850037 
z"/>
<path fill="#FAF9E9" opacity="1.000000" stroke="none" 
	d="
M783.586182,431.425934 
	C771.171021,431.405273 759.080933,431.253265 746.990662,431.116516 
	C741.851379,431.058380 736.711609,431.032288 731.183228,430.828369 
	C730.634583,430.301178 730.474731,429.937195 730.245972,429.282867 
	C734.623901,426.028229 739.177246,423.209961 743.491394,420.063690 
	C749.225891,415.881653 754.773865,411.443939 760.737976,407.025360 
	C768.425171,413.967926 775.809937,420.966949 783.071960,428.091064 
	C783.749390,428.755585 783.649963,430.212006 783.586182,431.425934 
z"/>
<path fill="#A3B8BF" opacity="1.000000" stroke="none" 
	d="
M526.105591,227.481964 
	C525.922485,227.212311 525.951172,226.885971 525.962097,226.724045 
	C533.945557,217.951157 541.918030,209.340195 549.931824,200.385468 
	C551.706665,202.045761 553.440247,204.049850 555.134644,206.412170 
	C555.214966,209.257034 555.736511,211.809799 555.341248,214.211685 
	C554.942017,216.637375 554.191406,219.422699 552.611511,221.152435 
	C548.966492,225.142990 544.725769,228.589432 540.985352,232.019470 
	C541.323059,234.014984 541.338074,236.292587 542.151611,238.235931 
	C542.832397,239.862167 544.488464,242.336624 545.640198,242.297577 
	C551.462402,242.100128 551.193542,246.725311 552.505066,250.112946 
	C552.854370,251.015259 552.864014,252.049133 553.046021,253.410339 
	C544.137817,245.115936 535.213196,236.433777 526.105591,227.481964 
z"/>
<path fill="#97B0B7" opacity="1.000000" stroke="none" 
	d="
M640.775146,548.089661 
	C642.205078,546.226624 643.474182,544.208435 645.094238,542.528748 
	C650.650940,536.767334 655.746826,530.448914 663.478149,526.524475 
	C667.743591,529.957520 671.712280,533.712158 675.828125,537.768921 
	C666.696716,539.814697 663.320679,548.549133 657.130310,553.952087 
	C655.860779,555.060120 654.371765,556.840454 653.040466,556.790894 
	C647.843201,556.597412 642.668640,555.793701 637.271851,554.748291 
	C638.297058,552.216431 639.536133,550.153015 640.775146,548.089661 
z"/>
<path fill="#314B59" opacity="1.000000" stroke="none" 
	d="
M528.905396,480.673218 
	C525.736511,480.874634 526.003723,483.230255 526.005005,485.431519 
	C526.010925,495.574127 526.005859,505.716705 526.004822,515.859314 
	C526.001709,546.287109 525.976440,576.715027 526.037720,607.142700 
	C526.042664,609.593628 526.642944,612.043396 527.057190,614.947510 
	C526.664429,615.928406 526.180969,616.455383 525.411255,617.024658 
	C524.997009,608.595825 524.760864,600.124695 524.759827,591.653564 
	C524.755310,554.059875 524.818298,516.466125 524.979065,478.414124 
	C526.317444,478.767029 527.533691,479.578247 528.905396,480.673218 
z"/>
<path fill="#A2B8BD" opacity="1.000000" stroke="none" 
	d="
M464.750061,234.253479 
	C467.313538,236.649155 467.062744,238.856155 464.108215,240.515015 
	C460.783264,242.381805 457.375885,244.101746 453.833221,245.573730 
	C457.254120,241.630554 460.846130,237.999207 464.750061,234.253479 
z"/>
<path fill="#A2B8BD" opacity="1.000000" stroke="none" 
	d="
M451.678802,247.096222 
	C451.839783,251.876312 449.069611,254.839783 444.049805,255.000946 
	C446.282928,252.318588 448.825562,249.769638 451.678802,247.096222 
z"/>
<path fill="#A2B8BD" opacity="1.000000" stroke="none" 
	d="
M504.954773,246.174500 
	C503.076630,242.773834 504.679810,241.773529 508.176086,242.436035 
	C507.300262,243.840530 506.251831,244.935928 504.954773,246.174500 
z"/>
<path fill="#A3B8BF" opacity="1.000000" stroke="none" 
	d="
M561.162048,211.424255 
	C560.438660,211.804581 559.712280,211.967407 558.985840,212.130234 
	C559.277588,211.732849 559.569336,211.335464 560.152893,210.887573 
	C560.784668,210.763397 561.022766,210.886627 561.162048,211.424255 
z"/>
<path fill="#A9BDC3" opacity="1.000000" stroke="none" 
	d="
M450.997009,684.006409 
	C451.386230,684.125671 451.626617,684.391541 451.867004,684.657410 
	C451.584747,684.706360 451.302521,684.755249 450.788818,684.628784 
	C450.557373,684.453369 450.848145,684.153076 450.997009,684.006409 
z"/>
<path fill="#A3B8BF" opacity="1.000000" stroke="none" 
	d="
M569.471558,223.516495 
	C569.454407,223.481766 569.488647,223.551224 569.471558,223.516495 
z"/>
<path fill="#031A25" opacity="1.000000" stroke="none" 
	d="
M640.478882,547.950195 
	C639.536133,550.153015 638.297058,552.216431 636.901611,554.589966 
	C623.280579,567.916931 609.856934,580.976746 596.302551,593.899353 
	C594.487671,595.629639 592.012146,596.666931 589.474915,598.032410 
	C589.794250,596.849548 590.481140,595.659363 591.434143,594.008057 
	C590.519592,593.715149 589.391357,593.202271 588.210327,593.004822 
	C585.115540,592.487427 582.834229,591.357544 582.964111,587.650391 
	C583.078003,584.399902 580.855713,584.077881 578.284851,583.908142 
	C577.205688,583.836914 575.547302,583.024475 575.309448,582.210693 
	C575.032349,581.262451 575.735229,579.684082 576.509766,578.829590 
	C580.624023,574.290466 583.501282,573.878418 590.277954,576.533081 
	C590.562134,576.375183 591.068481,576.244812 591.095032,576.049316 
	C592.051331,569.001038 594.355408,563.408203 600.935608,558.907593 
	C606.563416,555.058472 605.620605,546.153870 601.051331,540.453369 
	C599.922058,539.044617 598.570679,537.479492 598.265259,535.813293 
	C597.604675,532.208740 595.655334,531.651062 592.535156,532.242859 
	C591.611511,532.418091 590.539612,531.812256 589.535645,531.564331 
	C590.013489,530.601624 590.238831,529.187561 591.012939,528.754517 
	C594.346069,526.890015 594.859680,524.350159 594.132751,520.790588 
	C593.498413,517.684631 593.547913,514.380615 597.838562,513.336853 
	C598.602905,513.150879 599.128479,511.983337 599.325439,511.762054 
	C595.730408,506.857391 592.373474,502.277435 589.022827,497.308777 
	C604.660522,512.488892 620.291138,528.058533 635.924438,543.625366 
	C637.334717,545.029602 638.762756,546.416077 640.478882,547.950195 
z"/>
<path fill="#031A25" opacity="1.000000" stroke="none" 
	d="
M550.276489,501.254303 
	C551.600891,501.552216 553.012512,502.446625 554.524414,502.673889 
	C556.535706,502.976227 558.625183,502.758972 560.681030,502.764954 
	C559.985107,500.783356 559.810974,497.613342 558.498047,497.036865 
	C554.074524,495.094604 552.993958,492.568756 553.786560,487.828766 
	C554.360779,484.394501 553.028809,480.641510 552.470703,476.459686 
	C554.609741,476.039093 557.737732,474.332275 559.576721,478.900726 
	C559.872253,479.634918 560.965393,480.511871 561.705383,480.526215 
	C565.750488,480.604675 569.220947,481.573273 571.579407,485.231110 
	C571.682373,485.390869 573.793396,484.255951 574.987122,483.354462 
	C575.939026,483.811066 576.872803,484.637329 577.900757,485.745483 
	C575.388977,489.933960 576.262329,493.622711 580.305359,495.786621 
	C583.507996,497.500763 586.592224,508.535126 584.409180,511.403839 
	C583.681519,512.360046 581.787109,513.062500 580.559631,512.895996 
	C574.793274,512.113892 571.298279,513.902527 571.071899,520.571838 
	C564.147400,514.488831 557.277893,508.021332 550.276489,501.254303 
z"/>
<path fill="#031A25" opacity="1.000000" stroke="none" 
	d="
M561.341919,583.152710 
	C571.448425,572.685974 581.857727,562.349426 592.586304,551.890625 
	C592.066528,553.767395 591.643433,556.120117 590.304443,557.693604 
	C587.266113,561.263977 583.794800,564.468567 580.466980,567.789307 
	C575.447876,572.797913 570.462708,577.844299 565.297180,582.698059 
	C564.553345,583.397095 562.885071,583.112366 561.341919,583.152710 
z"/>
<path fill="#031A25" opacity="1.000000" stroke="none" 
	d="
M589.946411,538.773499 
	C584.391235,533.973083 578.847839,528.781982 573.152344,523.295410 
	C575.585815,522.164246 577.458557,522.267700 579.092468,525.176941 
	C580.387634,527.483093 583.166443,528.902588 584.927246,531.015259 
	C586.822510,533.289246 588.299011,535.912109 589.946411,538.773499 
z"/>
<path fill="#031A25" opacity="1.000000" stroke="none" 
	d="
M581.432739,489.823486 
	C582.437744,490.243988 583.124268,490.850098 583.909668,491.716888 
	C582.892334,492.486633 581.776184,492.995728 579.527588,494.021271 
	C580.360596,491.914734 580.737366,490.961914 581.432739,489.823486 
z"/>
<path fill="#031A25" opacity="1.000000" stroke="none" 
	d="
M584.337830,604.994690 
	C583.717529,606.038696 582.729248,607.083740 581.455688,608.262268 
	C579.348572,604.994080 581.577332,604.927429 584.337830,604.994690 
z"/>
<path fill="#031A25" opacity="1.000000" stroke="none" 
	d="
M587.622192,600.011169 
	C587.680969,600.980347 587.373657,601.964478 586.792847,603.110901 
	C584.577881,601.694580 584.615356,600.565002 587.622192,600.011169 
z"/>
<path fill="#031A25" opacity="1.000000" stroke="none" 
	d="
M597.188110,547.941772 
	C596.621338,547.207703 596.400452,546.410339 596.043762,545.324829 
	C596.830322,545.413696 597.752686,545.790588 598.675049,546.167542 
	C598.294739,546.737854 597.914429,547.308167 597.188110,547.941772 
z"/>
<path fill="#031A25" opacity="1.000000" stroke="none" 
	d="
M596.473022,550.515991 
	C596.456177,550.481873 596.489807,550.550049 596.473022,550.515991 
z"/>
<path fill="#031A25" opacity="1.000000" stroke="none" 
	d="
M587.526794,499.484192 
	C587.543396,499.518127 587.510193,499.450226 587.526794,499.484192 
z"/>
<path fill="#031A25" opacity="1.000000" stroke="none" 
	d="
M545.899780,453.738159 
	C545.077087,454.550385 544.137878,455.108276 542.062378,456.341187 
	C542.551208,454.255096 542.810974,453.146667 543.392761,451.839355 
	C544.404358,452.254944 545.093811,452.869415 545.899780,453.738159 
z"/>
<path fill="#031A25" opacity="1.000000" stroke="none" 
	d="
M565.035034,472.629791 
	C562.054565,473.062531 560.199707,471.763672 560.090881,468.099945 
	C561.713318,469.243469 563.315674,470.780457 565.035034,472.629791 
z"/>
<path fill="#031A25" opacity="1.000000" stroke="none" 
	d="
M569.717651,477.377197 
	C568.507812,477.433319 567.193359,477.229492 565.878845,477.025696 
	C566.314392,476.629517 566.750000,476.233368 567.567261,475.746765 
	C568.503601,476.143341 569.058350,476.630310 569.717651,477.377197 
z"/>
<path fill="#031A25" opacity="1.000000" stroke="none" 
	d="
M554.744629,462.209747 
	C553.828674,461.777496 552.762512,461.067719 551.952820,460.130737 
	C553.004272,460.579742 553.799377,461.255981 554.744629,462.209747 
z"/>
<path fill="#031A25" opacity="1.000000" stroke="none" 
	d="
M549.955322,457.530762 
	C549.465332,457.490356 548.851318,457.170868 548.308350,456.509521 
	C548.863403,456.529022 549.347290,456.890350 549.955322,457.530762 
z"/>
</svg>